Blocked_.sfdir
StartChar: exclam
Encoding: 33 33 52
Width: 155
VWidth: 0
Flags: HMW
LayerCount: 2
Fore
SplineSet
77 81 m 0
 100 81 117 64 117 41 c 0
 117 18 100 0 77 0 c 0
 54 0 36 18 36 41 c 0
 36 64 54 81 77 81 c 0
77 570 m 0
 100 570 117 552 117 529 c 0
 117 420.666666667 117 312.333333333 117 204 c 0
 117 181 100 163 77 163 c 0
 54 163 36 181 36 204 c 2
 36 529 l 2
 36 552 54 570 77 570 c 0
EndSplineSet
EndChar
StartChar: quotedbl
Encoding: 34 34 53
Width: 314
VWidth: 0
Flags: HMW
LayerCount: 2
Fore
SplineSet
238 407 m 0
 218 407 197 423 197 444 c 2
 197 529 l 2
 197 552 215 570 238 570 c 0
 261 570 278 552 278 529 c 2
 278 444 l 2
 278 423 258 407 238 407 c 0
34 531 m 0
 34 553 54 570 75 570 c 0
 96 570 115 553 115 531 c 0
 115 503 115 475 115 447 c 0
 115 425 97 407 75 407 c 0
 53 407 34 425 34 447 c 0
 34 475 34 503 34 531 c 0
EndSplineSet
EndChar
StartChar: numbersign
Encoding: 35 35 54
Width: 476
VWidth: 0
Flags: HMW
LayerCount: 2
Fore
SplineSet
29 375 m 0
 29 398 47 417 70 417 c 2
 112 417 l 1
 112 446 l 2
 112 448 113 450 113 452 c 0
 113 454 112 457 112 459 c 0
 112 483 130 501 154 501 c 0
 178 501 196 483 196 459 c 0
 196 457 195 454 195 452 c 0
 195 450 196 448 196 446 c 2
 196 417 l 1
 279 417 l 1
 279 461 l 2
 279 484 301 501 321 501 c 0
 341 501 361 484 361 461 c 2
 361 417 l 1
 403 417 l 2
 427 417 445 399 445 375 c 0
 445 351 427 334 403 334 c 0
 389 334 375 334 361 334 c 1
 361 306 361 278 361 250 c 1
 403 250 l 2
 427 250 445 233 445 209 c 0
 445 185 427 167 403 167 c 2
 361 167 l 1
 361 124 l 2
 361 100 343 83 321 83 c 0
 299 83 279 100 279 124 c 2
 279 167 l 1
 251 167 224 167 196 167 c 1
 196 125 l 2
 196 101 178 83 154 83 c 0
 130 83 112 101 112 125 c 0
 112 139 112 153 112 167 c 1
 70 167 l 2
 47 167 29 186 29 209 c 0
 29 232 47 250 70 250 c 2
 112 250 l 1
 112 278 112 306 112 334 c 1
 70 334 l 2
 47 334 29 352 29 375 c 0
196 334 m 1
 196 306 196 278 196 250 c 1
 224 250 251 250 279 250 c 1
 279 278 279 306 279 334 c 1
 196 334 l 1
EndSplineSet
EndChar
StartChar: dollar
Encoding: 36 36 55
Width: 476
VWidth: 0
Flags: HMW
LayerCount: 2
Fore
SplineSet
400 325 m 0
 422 325 441 308 441 285 c 0
 441 206 441 128 441 49 c 0
 441 48 441 46 441 45 c 0
 441 44 441 42 441 41 c 0
 441 18 423 0 400 0 c 0
 399 0 400 0 399 0 c 2
 398 0 l 1
 278 0 l 1
 278 -34 l 2
 278 -35 278 -36 278 -37 c 0
 278 -38 278 -40 278 -41 c 0
 278 -64 261 -81 238 -81 c 0
 215 -81 197 -64 197 -41 c 0
 197 -40 197 -38 197 -37 c 0
 197 -36 197 -35 197 -34 c 2
 197 0 l 1
 77 0 l 2
 76 0 76 0 75 0 c 0
 52 0 34 18 34 41 c 0
 34 64 52 81 75 81 c 0
 76 81 76 81 77 81 c 2
 197 81 l 1
 197 135 197 190 197 244 c 1
 77 244 l 2
 76 244 76 244 75 244 c 0
 52 244 34 262 34 285 c 0
 34 286 34 287 34 288 c 0
 34 289 34 289 34 290 c 2
 34 442 l 2
 34 443 34 444 34 445 c 0
 34 446 34 447 34 448 c 0
 34 471 52 488 75 488 c 0
 98 488 115 471 115 448 c 0
 115 447 115 446 115 445 c 0
 115 444 115 443 115 442 c 2
 115 325 l 1
 197 325 l 1
 197 379 197 434 197 488 c 1
 163 488 l 2
 162 488 162 489 161 489 c 0
 159 489 158 488 156 488 c 0
 133 488 115 506 115 529 c 0
 115 552 133 570 156 570 c 0
 158 570 159 570 161 570 c 0
 162 570 162 570 163 570 c 2
 197 570 l 1
 197 607 l 2
 197 608 197 607 197 608 c 0
 197 609 197 610 197 611 c 0
 197 634 215 651 238 651 c 0
 261 651 278 634 278 611 c 0
 278 610 278 609 278 608 c 0
 278 607 278 608 278 607 c 2
 278 570 l 1
 393 570 l 2
 394 570 394 570 395 570 c 0
 397 570 398 570 400 570 c 0
 423 570 441 552 441 529 c 0
 441 506 423 488 400 488 c 0
 398 488 397 489 395 489 c 0
 394 489 394 488 393 488 c 2
 278 488 l 1
 278 434 278 379 278 325 c 1
 398 325 l 1
 399 326 l 2
 400 326 399 325 400 325 c 0
278 244 m 1
 278 190 278 135 278 81 c 1
 360 81 l 1
 360 135 360 190 360 244 c 1
 278 244 l 1
EndSplineSet
Validated: 1
EndChar
StartChar: percent
Encoding: 37 37 56
Width: 484
VWidth: 0
Flags: HMW
LayerCount: 2
Fore
SplineSet
33 543 m 2
 33 566 52 584 75 584 c 2
 158 584 l 2
 182 584 199 565 199 542 c 1
 200 541 l 1
 200 514 200 487 200 460 c 0
 200 459 199 460 199 459 c 0
 199 435 182 417 158 417 c 2
 75 417 l 2
 51 417 33 436 33 459 c 2
 33 543 l 2
408 584 m 0
 432 584 450 566 450 542 c 2
 450 459 l 2
 450 435 432 417 408 417 c 0
 384 417 367 435 367 459 c 2
 367 542 l 2
 367 566 384 584 408 584 c 0
294 417 m 2
 355 417 l 2
 361 417 367 412 367 406 c 2
 367 345 l 2
 367 339 361 333 355 333 c 2
 294 333 l 2
 288 333 283 339 283 345 c 2
 283 406 l 2
 283 412 288 417 294 417 c 2
211 333 m 2
 271 333 l 2
 277 333 283 329 283 323 c 2
 283 261 l 2
 283 255 277 250 271 250 c 2
 211 250 l 2
 205 250 199 255 199 261 c 2
 199 323 l 2
 199 329 205 333 211 333 c 2
128 250 m 2
 188 250 l 2
 194 250 199 245 199 239 c 2
 199 178 l 2
 199 172 194 167 188 167 c 2
 128 167 l 2
 122 167 116 172 116 178 c 2
 116 239 l 2
 116 245 122 250 128 250 c 2
283 126 m 2
 283 149 302 167 325 167 c 2
 408 167 l 2
 431 167 450 149 450 126 c 0
 450 98 450 70 450 42 c 0
 450 18 432 0 408 0 c 2
 325 0 l 2
 301 0 283 18 283 42 c 2
 283 126 l 2
75 167 m 0
 99 167 116 149 116 125 c 2
 116 42 l 2
 116 18 99 0 75 0 c 0
 51 0 33 18 33 42 c 2
 33 125 l 2
 33 149 51 167 75 167 c 0
EndSplineSet
EndChar
StartChar: ampersand
Encoding: 38 38 57
Width: 469
VWidth: 0
Flags: W
HStem: 0 81.4277<116.329 269.387 360.615 432.243> 81.4277 81.4297<274.287 355.715> 162.857 81.4277<192.857 274.287 360.615 432.243> 244.285 81.4297<111.43 192.857> 325.715 162.857<34.9561 106.474> 407.143 81.4297<360.615 432.243> 488.572 81.4277<116.416 350.728>
VStem: 30 81.4297<86.3278 239.386 330.614 483.726> 111.43 81.4277<244.285 325.715> 192.857 81.4297<162.857 244.285> 274.287 81.4277<81.4277 162.857> 355.715 81.4277<4.90007 76.5281 167.757 239.386 412.043 483.672>
LayerCount: 2
Fore
SplineSet
111.4296875 529.28515625 m 0x0290
 111.4296875 550.06216971 128.123234602 570 150.041015625 570 c 2
 317.103515625 570 l 2
 339.024590763 570 355.71484375 550.051689788 355.71484375 529.28515625 c 0
 355.71484375 508.50894569 339.021225603 488.572265625 317.103515625 488.572265625 c 2
 150.041015625 488.572265625 l 2
 128.120012072 488.572265625 111.4296875 508.519434244 111.4296875 529.28515625 c 0x0290
30 448.173828125 m 2x09
 30 470.634665154 48.437185612 488.572265625 70.71484375 488.572265625 c 0
 92.9940649516 488.572265625 111.4296875 470.63459857 111.4296875 448.173828125 c 2
 111.4296875 374.68359375 l 2
 111.4296875 373.708007812 111.291992188 372.767578125 111.05859375 371.8671875 c 0
 111.293945312 370.087890625 111.4296875 368.2734375 111.4296875 366.427734375 c 0
 111.4296875 343.872070312 93.2705078125 325.71484375 70.71484375 325.71484375 c 0
 48.1591796875 325.71484375 30 343.872070312 30 366.427734375 c 0
 30 368.2734375 30.1357421875 370.087890625 30.37109375 371.8671875 c 0
 30.1376953125 372.767578125 30 373.708007812 30 374.68359375 c 2
 30 448.173828125 l 2x09
396.4296875 488.572265625 m 0x0410
 418.985351562 488.572265625 437.142578125 470.413085938 437.142578125 447.857421875 c 0
 437.142578125 425.301757812 418.985351562 407.142578125 396.4296875 407.142578125 c 0
 373.874023438 407.142578125 355.71484375 425.301757812 355.71484375 447.857421875 c 0
 355.71484375 470.413085938 373.874023438 488.572265625 396.4296875 488.572265625 c 0x0410
122.541015625 325.71484375 m 2x1080
 181.74609375 325.71484375 l 2
 187.90234375 325.71484375 192.857421875 320.759765625 192.857421875 314.603515625 c 2
 192.857421875 255.3984375 l 2
 192.857421875 249.2421875 187.90234375 244.28515625 181.74609375 244.28515625 c 2
 122.541015625 244.28515625 l 2
 116.384765625 244.28515625 111.4296875 249.2421875 111.4296875 255.3984375 c 2
 111.4296875 314.603515625 l 2
 111.4296875 320.759765625 116.384765625 325.71484375 122.541015625 325.71484375 c 2x1080
70.71484375 244.28515625 m 0
 93.2705078125 244.28515625 111.4296875 226.127929688 111.4296875 203.572265625 c 0
 111.4296875 202.694335938 111.392578125 201.825195312 111.337890625 200.9609375 c 0
 111.391601562 200.514648438 111.4296875 200.064453125 111.4296875 199.603515625 c 2
 111.4296875 126.111328125 l 2
 111.4296875 125.647460938 111.392578125 125.194335938 111.337890625 124.74609375 c 0
 111.391601562 123.884765625 111.4296875 123.018554688 111.4296875 122.142578125 c 0
 111.4296875 99.5869140625 93.2705078125 81.427734375 70.71484375 81.427734375 c 0
 48.1591796875 81.427734375 30 99.5869140625 30 122.142578125 c 0
 30 123.018554688 30.0380859375 123.884765625 30.091796875 124.74609375 c 0
 30.037109375 125.194335938 30 125.647460938 30 126.111328125 c 2
 30 199.603515625 l 2
 30 200.064453125 30.0380859375 200.514648438 30.091796875 200.9609375 c 0
 30.037109375 201.825195312 30 202.694335938 30 203.572265625 c 0x51
 30 226.127929688 48.1591796875 244.28515625 70.71484375 244.28515625 c 0
203.96875 244.28515625 m 2x2040
 263.173828125 244.28515625 l 2
 269.330078125 244.28515625 274.287109375 239.330078125 274.287109375 233.173828125 c 2
 274.287109375 173.96875 l 2
 274.287109375 167.8125 269.330078125 162.857421875 263.173828125 162.857421875 c 2
 203.96875 162.857421875 l 2
 197.8125 162.857421875 192.857421875 167.8125 192.857421875 173.96875 c 2
 192.857421875 233.173828125 l 2
 192.857421875 239.330078125 197.8125 244.28515625 203.96875 244.28515625 c 2x2040
396.4296875 244.28515625 m 0
 418.985351562 244.28515625 437.142578125 226.127929688 437.142578125 203.572265625 c 0
 437.142578125 181.016601562 418.985351562 162.857421875 396.4296875 162.857421875 c 0
 373.874023438 162.857421875 355.71484375 181.016601562 355.71484375 203.572265625 c 0x2010
 355.71484375 226.127929688 373.874023438 244.28515625 396.4296875 244.28515625 c 0
285.3984375 162.857421875 m 2x4020
 344.603515625 162.857421875 l 2
 350.759765625 162.857421875 355.71484375 157.90234375 355.71484375 151.74609375 c 2
 355.71484375 92.541015625 l 2
 355.71484375 86.384765625 350.759765625 81.427734375 344.603515625 81.427734375 c 2
 285.3984375 81.427734375 l 2
 279.2421875 81.427734375 274.287109375 86.384765625 274.287109375 92.541015625 c 2
 274.287109375 151.74609375 l 2
 274.287109375 157.90234375 279.2421875 162.857421875 285.3984375 162.857421875 c 2x4020
152.142578125 81.427734375 m 0x80a0
 153.34375 81.427734375 154.53125 81.3662109375 155.705078125 81.265625 c 0
 156.303710938 81.3642578125 156.9140625 81.427734375 157.541015625 81.427734375 c 2
 231.03125 81.427734375 l 2
 231.319335938 81.427734375 231.602539062 81.40625 231.884765625 81.384765625 c 0
 232.4453125 81.4072265625 233.005859375 81.427734375 233.572265625 81.427734375 c 0
 256.127929688 81.427734375 274.287109375 63.2705078125 274.287109375 40.71484375 c 0
 274.287109375 18.1591796875 256.127929688 0 233.572265625 0 c 0
 233.005859375 0 232.4453125 0.0205078125 231.884765625 0.04296875 c 0
 231.602539062 0.021484375 231.319335938 0 231.03125 0 c 2
 157.541015625 0 l 2
 156.9140625 0 156.303710938 0.0634765625 155.705078125 0.162109375 c 0
 154.53125 0.0615234375 153.34375 0 152.142578125 0 c 0
 129.586914062 0 111.4296875 18.1591796875 111.4296875 40.71484375 c 0
 111.4296875 63.2705078125 129.586914062 81.427734375 152.142578125 81.427734375 c 0x80a0
396.4296875 81.427734375 m 0
 418.985351562 81.427734375 437.142578125 63.2705078125 437.142578125 40.71484375 c 0
 437.142578125 18.1591796875 418.985351562 0 396.4296875 0 c 0
 373.874023438 0 355.71484375 18.1591796875 355.71484375 40.71484375 c 0x8010
 355.71484375 63.2705078125 373.874023438 81.427734375 396.4296875 81.427734375 c 0
EndSplineSet
Validated: 524289
EndChar
StartChar: quotesingle
Encoding: 39 39 58
Width: 151
VWidth: 0
Flags: HMW
LayerCount: 2
Fore
SplineSet
75 570 m 0
 98 570 115 552 115 529 c 0
 115 502 115 475 115 448 c 0
 115 425 98 407 75 407 c 0
 52 407 34 425 34 448 c 0
 34 475 34 502 34 529 c 0
 34 552 52 570 75 570 c 0
EndSplineSet
EndChar
StartChar: parenleft
Encoding: 40 40 59
Width: 304
VWidth: 0
Flags: W
HStem: 0 81.4277<197.757 269.385> 81.4277 81.4297<111.428 192.857> 162.857 244.285<34.4931 106.934> 407.143 81.4297<111.428 192.857> 488.572 81.4277<197.757 269.385>
VStem: 30 81.4277<167.672 402.328> 111.428 81.4297<81.4277 162.857 407.143 488.572> 192.857 81.4277<4.90007 76.5281 493.472 565.1>
LayerCount: 2
Fore
SplineSet
233.5703125 570 m 0x09
 256.125976562 570 274.28515625 551.840820312 274.28515625 529.28515625 c 0
 274.28515625 506.729492188 256.125976562 488.572265625 233.5703125 488.572265625 c 0
 211.014648438 488.572265625 192.857421875 506.729492188 192.857421875 529.28515625 c 0
 192.857421875 551.840820312 211.014648438 570 233.5703125 570 c 0x09
122.5390625 488.572265625 m 2x12
 181.744140625 488.572265625 l 2
 187.900390625 488.572265625 192.857421875 483.615234375 192.857421875 477.458984375 c 2
 192.857421875 418.25390625 l 2
 192.857421875 412.09765625 187.900390625 407.142578125 181.744140625 407.142578125 c 2
 122.5390625 407.142578125 l 2
 116.3828125 407.142578125 111.427734375 412.09765625 111.427734375 418.25390625 c 2
 111.427734375 477.458984375 l 2
 111.427734375 483.615234375 116.3828125 488.572265625 122.5390625 488.572265625 c 2x12
30 366.537109375 m 2x24
 30 389.394221848 48.4381033998 407.142578125 70.712890625 407.142578125 c 0
 92.9892080602 407.142578125 111.427734375 389.392261119 111.427734375 366.537109375 c 2
 111.427734375 203.462890625 l 2
 111.427734375 180.605730935 92.9877149253 162.857421875 70.712890625 162.857421875 c 0
 48.4366098116 162.857421875 30 180.607785871 30 203.462890625 c 2
 30 366.537109375 l 2x24
122.5390625 162.857421875 m 2x42
 181.744140625 162.857421875 l 2
 187.900390625 162.857421875 192.857421875 157.90234375 192.857421875 151.74609375 c 2
 192.857421875 92.541015625 l 2
 192.857421875 86.384765625 187.900390625 81.427734375 181.744140625 81.427734375 c 2
 122.5390625 81.427734375 l 2
 116.3828125 81.427734375 111.427734375 86.384765625 111.427734375 92.541015625 c 2
 111.427734375 151.74609375 l 2
 111.427734375 157.90234375 116.3828125 162.857421875 122.5390625 162.857421875 c 2x42
233.5703125 81.427734375 m 0x81
 256.125976562 81.427734375 274.28515625 63.2705078125 274.28515625 40.71484375 c 0
 274.28515625 18.1591796875 256.125976562 0 233.5703125 0 c 0
 211.014648438 0 192.857421875 18.1591796875 192.857421875 40.71484375 c 0
 192.857421875 63.2705078125 211.014648438 81.427734375 233.5703125 81.427734375 c 0x81
EndSplineSet
Validated: 524289
EndChar
StartChar: parenright
Encoding: 41 41 60
Width: 304
VWidth: 0
Flags: HMW
LayerCount: 2
Fore
SplineSet
69 81 m 0
 92 81 109 64 109 41 c 0
 109 18 92 0 69 0 c 0
 46 0 28 18 28 41 c 0
 28 64 46 81 69 81 c 0
121 162 m 2
 180 162 l 2
 186 162 191 158 191 152 c 2
 191 93 l 2
 191 87 186 81 180 81 c 2
 121 81 l 2
 115 81 109 87 109 93 c 2
 109 152 l 2
 109 158 115 162 121 162 c 2
191 366 m 2
 191 389 210 407 232 407 c 0
 254 407 272 389 272 366 c 2
 272 204 l 2
 272 181 254 162 232 162 c 0
 210 162 191 181 191 204 c 2
 191 366 l 2
121 488 m 2
 180 488 l 2
 186 488 191 483 191 477 c 2
 191 418 l 2
 191 412 186 407 180 407 c 2
 121 407 l 2
 115 407 109 412 109 418 c 2
 109 477 l 2
 109 483 115 488 121 488 c 2
69 570 m 0
 92 570 109 552 109 529 c 0
 109 506 92 488 69 488 c 0
 46 488 28 506 28 529 c 0
 28 552 46 570 69 570 c 0
EndSplineSet
EndChar
StartChar: asterisk
Encoding: 42 42 61
Width: 464
VWidth: 0
Flags: HMW
LayerCount: 2
Fore
SplineSet
232 489 m 0
 255 489 272 471 272 448 c 2
 272 447 l 1
 272 446 l 1
 272 325 l 1
 313 325 l 2
 336 325 354 308 354 285 c 0
 354 262 336 244 313 244 c 2
 272 244 l 1
 272 123 l 1
 272 122 l 2
 272 99 255 81 232 81 c 0
 209 81 191 99 191 122 c 2
 191 123 l 1
 191 244 l 1
 151 244 l 1
 150 244 l 2
 127 244 109 262 109 285 c 0
 109 308 127 325 150 325 c 1
 150 326 l 1
 151 325 l 1
 191 325 l 1
 191 446 l 1
 191 447 l 1
 191 448 l 2
 191 471 209 489 232 489 c 0
69 407 m 0
 92 407 109 389 109 366 c 0
 109 343 92 325 69 325 c 0
 46 325 28 343 28 366 c 0
 28 389 46 407 69 407 c 0
394 407 m 0
 417 407 435 389 435 366 c 0
 435 343 417 325 394 325 c 0
 371 325 354 343 354 366 c 0
 354 389 371 407 394 407 c 0
69 244 m 0
 92 244 109 227 109 204 c 0
 109 181 92 163 69 163 c 0
 46 163 28 181 28 204 c 0
 28 227 46 244 69 244 c 0
394 244 m 0
 417 244 435 227 435 204 c 0
 435 181 417 163 394 163 c 0
 371 163 354 181 354 204 c 0
 354 227 371 244 394 244 c 0
EndSplineSet
Validated: 1
EndChar
StartChar: plus
Encoding: 43 43 62
Width: 462
VWidth: 0
Flags: W
HStem: 244.285 81.4297<31.9001 189.857 271.287 429.243>
VStem: 189.857 81.4297<86.3278 244.285 325.715 483.672>
LayerCount: 2
Fore
SplineSet
230.572265625 488.572265625 m 0
 253.127929688 488.572265625 271.287109375 470.413085938 271.287109375 447.857421875 c 0
 271.287109375 446.140625 271.166992188 444.453125 270.962890625 442.79296875 c 0
 271.171875 441.51953125 271.287109375 440.211914062 271.287109375 438.876953125 c 2
 271.287109375 325.71484375 l 1
 392.111328125 325.71484375 l 2
 392.256835938 325.71484375 392.3984375 325.69921875 392.54296875 325.693359375 c 0
 392.838867188 325.69921875 393.131835938 325.71484375 393.4296875 325.71484375 c 0
 415.985351562 325.71484375 434.142578125 307.555664062 434.142578125 285 c 0
 434.142578125 262.444335938 415.985351562 244.28515625 393.4296875 244.28515625 c 0
 393.131835938 244.28515625 392.838867188 244.30078125 392.54296875 244.306640625 c 0
 392.3984375 244.30078125 392.256835938 244.28515625 392.111328125 244.28515625 c 2
 271.287109375 244.28515625 l 1
 271.287109375 126.66796875 l 2
 271.287109375 126.006835938 271.252929688 125.35546875 271.19921875 124.708984375 c 0
 271.251953125 123.859375 271.287109375 123.005859375 271.287109375 122.142578125 c 0
 271.287109375 99.5869140625 253.127929688 81.427734375 230.572265625 81.427734375 c 0
 208.016601562 81.427734375 189.857421875 99.5869140625 189.857421875 122.142578125 c 0
 189.857421875 123.006835938 189.892578125 123.862304688 189.9453125 124.712890625 c 0
 189.891601562 125.358398438 189.857421875 126.008789062 189.857421875 126.66796875 c 2
 189.857421875 244.28515625 l 1
 69.033203125 244.28515625 l 2
 68.8876953125 244.28515625 68.74609375 244.30078125 68.6015625 244.306640625 c 0
 68.3056640625 244.30078125 68.0126953125 244.28515625 67.71484375 244.28515625 c 0
 45.1591796875 244.28515625 27 262.444335938 27 285 c 0
 27 307.555664062 45.1591796875 325.71484375 67.71484375 325.71484375 c 0
 68.0126953125 325.71484375 68.3056640625 325.69921875 68.6015625 325.693359375 c 0
 68.74609375 325.69921875 68.8876953125 325.71484375 69.033203125 325.71484375 c 2
 189.857421875 325.71484375 l 1
 189.857421875 438.876953125 l 2
 189.857421875 440.2109375 189.971679688 441.517578125 190.1796875 442.791015625 c 0
 189.975585938 444.452148438 189.857421875 446.139648438 189.857421875 447.857421875 c 0
 189.857421875 470.413085938 208.016601562 488.572265625 230.572265625 488.572265625 c 0
EndSplineSet
Validated: 524289
EndChar
StartChar: comma
Encoding: 44 44 63
Width: 224
VWidth: 0
Flags: HMW
LayerCount: 2
Fore
SplineSet
66 0 m 0
 89 0 106 -18 106 -41 c 0
 106 -64 89 -81 66 -81 c 0
 43 -81 25 -64 25 -41 c 0
 25 -18 43 0 66 0 c 0
147 81 m 0
 170 81 188 64 188 41 c 0
 188 18 170 0 147 0 c 0
 124 0 106 18 106 41 c 0
 106 64 124 81 147 81 c 0
EndSplineSet
EndChar
StartChar: hyphen
Encoding: 45 45 64
Width: 311
VWidth: 0
Flags: HW
LayerCount: 2
Fore
SplineSet
73.712890625 325.71484375 m 0
 74.6689453125 325.71484375 75.615234375 325.669921875 76.5546875 325.60546875 c 0
 77.0419921875 325.669921875 77.5341796875 325.71484375 78.0390625 325.71484375 c 2
 232.244140625 325.71484375 l 2
 232.747070312 325.71484375 233.239257812 325.669921875 233.724609375 325.60546875 c 0
 234.666015625 325.669921875 235.612304688 325.71484375 236.5703125 325.71484375 c 0
 259.125976562 325.71484375 277.28515625 307.555664062 277.28515625 285 c 0
 277.28515625 262.444335938 259.125976562 244.28515625 236.5703125 244.28515625 c 0
 235.612304688 244.28515625 234.666015625 244.330078125 233.724609375 244.39453125 c 0
 233.239257812 244.330078125 232.747070312 244.28515625 232.244140625 244.28515625 c 2
 78.0390625 244.28515625 l 2
 77.5341796875 244.28515625 77.0419921875 244.330078125 76.5546875 244.39453125 c 0
 75.615234375 244.330078125 74.6689453125 244.28515625 73.712890625 244.28515625 c 0
 51.1572265625 244.28515625 33 262.444335938 33 285 c 0
 33 307.555664062 51.1572265625 325.71484375 73.712890625 325.71484375 c 0
EndSplineSet
EndChar
StartChar: period
Encoding: 46 46 65
Width: 152
VWidth: 0
Flags: HMW
LayerCount: 2
Fore
SplineSet
34 0 m 1
 34 81 l 1
 115 81 l 1
 115 0 l 1
 34 0 l 1
EndSplineSet
EndChar
StartChar: slash
Encoding: 47 47 66
Width: 311
VWidth: 0
Flags: HMW
LayerCount: 2
Fore
SplineSet
240 584 m 0
 264 584 281 566 281 542 c 2
 281 459 l 2
 281 435 264 417 240 417 c 0
 216 417 198 435 198 459 c 2
 198 542 l 2
 198 566 216 584 240 584 c 0
114 376 m 2
 114 399 133 417 156 417 c 0
 179 417 198 399 198 376 c 2
 198 292 l 2
 198 268 180 250 156 250 c 0
 132 250 114 268 114 292 c 0
 114 293 115 295 115 296 c 0
 115 297 114 297 114 298 c 2
 114 376 l 2
73 250 m 0
 97 250 114 233 114 209 c 2
 114 42 l 2
 114 18 97 0 73 0 c 0
 49 0 31 18 31 42 c 2
 31 209 l 2
 31 233 49 250 73 250 c 0
EndSplineSet
EndChar
StartChar: zero
Encoding: 48 48 67
Width: 478
VWidth: 0
Flags: HMW
LayerCount: 2
Fore
SplineSet
157 570 m 0
 158 570 160 570 161 570 c 0
 162 570 162 570 163 570 c 2
 315 570 l 2
 316 570 315 570 316 570 c 0
 317 570 319 570 320 570 c 0
 343 570 360 552 360 529 c 0
 360 506 343 489 320 489 c 0
 319 489 317 489 316 489 c 0
 315 489 316 489 315 489 c 2
 163 489 l 2
 162 489 162 489 161 489 c 0
 160 489 158 489 157 489 c 0
 134 489 116 506 116 529 c 0
 116 552 134 570 157 570 c 0
76 0 m 2
 54 0 35 19 35 41 c 0
 35 42 35 43 35 44 c 0
 35 45 35 45 35 46 c 0
 35 179 35 313 35 446 c 2
 35 447 l 1
 35 448 l 2
 35 471 53 489 76 489 c 0
 99 489 116 471 116 448 c 2
 116 447 l 1
 116 446 l 2
 116 325 116 202 116 81 c 1
 360 81 l 1
 360 202 360 325 360 446 c 1
 361 447 l 1
 360 448 l 1
 360 471 378 489 401 489 c 0
 424 489 442 471 442 448 c 2
 442 447 l 1
 442 446 l 2
 442 313 442 179 442 46 c 0
 442 45 442 45 442 44 c 0
 442 43 442 42 442 41 c 0
 442 19 424 0 402 0 c 2
 76 0 l 2
EndSplineSet
Validated: 1
EndChar
StartChar: one
Encoding: 49 49 68
Width: 304
VWidth: 0
Flags: HMW
LayerCount: 2
Fore
SplineSet
29 42 m 0
 29 62 45 83 68 83 c 2
 112 83 l 1
 112 417 l 1
 71 417 l 2
 47 417 29 435 29 459 c 0
 29 483 47 500 71 500 c 1
 72 501 l 1
 73 500 l 1
 112 500 l 1
 112 535 l 2
 112 536 113 537 113 538 c 0
 113 539 112 541 112 542 c 0
 112 566 130 584 154 584 c 0
 178 584 196 566 196 542 c 0
 196 389 196 236 196 83 c 1
 240 83 l 2
 263 83 279 62 279 42 c 0
 279 22 263 0 240 0 c 2
 68 0 l 2
 45 0 29 22 29 42 c 0
EndSplineSet
EndChar
StartChar: two
Encoding: 50 50 69
Width: 488
VWidth: 0
Flags: HMW
LayerCount: 2
Fore
SplineSet
118 542 m 0
 118 564 135 584 158 584 c 2
 329 584 l 2
 352 584 368 564 368 542 c 0
 368 520 352 500 329 500 c 2
 158 500 l 2
 135 500 118 520 118 542 c 0
77 500 m 0
 101 500 118 483 118 459 c 0
 118 435 101 417 77 417 c 0
 53 417 35 435 35 459 c 0
 35 483 53 500 77 500 c 0
73 0 m 0
 51 0 35 22 35 42 c 2
 35 278 l 2
 35 280 36 282 36 284 c 0
 36 286 35 289 35 292 c 0
 35 316 53 333 77 333 c 0
 78 333 79 334 80 334 c 0
 81 334 80 333 81 333 c 0
 176 333 273 333 368 333 c 1
 368 456 l 2
 368 457 369 456 369 457 c 0
 369 458 368 458 368 459 c 0
 368 483 386 500 410 500 c 0
 434 500 452 483 452 459 c 2
 452 292 l 2
 452 272 436 250 413 250 c 0
 315 250 216 250 118 250 c 1
 118 195 118 138 118 83 c 1
 410 83 l 2
 434 83 452 66 452 42 c 0
 452 18 434 0 410 0 c 0
 297 0 186 0 73 0 c 0
EndSplineSet
EndChar
StartChar: three
Encoding: 51 51 70
Width: 477
VWidth: 0
Flags: W
HStem: 0 81.4277<37.9001 358.715> 244.285 81.4297<37.9001 358.715> 488.572 81.4277<37.9001 353.955>
VStem: 358.729 81.4004<81.4277 244.285 325.715 483.672>
CounterMasks: 1 e0
LayerCount: 2
Fore
SplineSet
358.71484375 529.28515625 m 0
 358.71484375 507.414764009 341.131613939 488.572265625 318.794921875 488.572265625 c 2
 76.474609375 488.572265625 l 2
 76.162109375 488.572265625 75.8544921875 488.59375 75.548828125 488.619140625 c 0
 74.9404296875 488.592773438 74.330078125 488.572265625 73.71484375 488.572265625 c 0
 51.1591796875 488.572265625 33 506.729492188 33 529.28515625 c 0
 33 551.840820312 51.1591796875 570 73.71484375 570 c 0
 74.330078125 570 74.9404296875 569.979492188 75.548828125 569.953125 c 0
 75.8544921875 569.978515625 76.162109375 570 76.474609375 570 c 2
 318.794921875 570 l 2
 341.132131456 570 358.71484375 551.151836426 358.71484375 529.28515625 c 0
399.4296875 488.572265625 m 0
 421.985351562 488.572265625 440.142578125 470.413085938 440.142578125 447.857421875 c 0
 440.142578125 447.666015625 440.131835938 447.477539062 440.12890625 447.287109375 c 0
 440.129882812 447.189453125 440.142578125 447.095703125 440.142578125 446.998046875 c 2
 440.142578125 147.083984375 l 2
 440.142578125 146.559570312 440.1171875 146.041992188 440.080078125 145.52734375 c 0
 440.107421875 145.111328125 440.142578125 144.696289062 440.142578125 144.2734375 c 2
 440.142578125 45.2578125 l 2
 440.142578125 44.6142578125 440.112304688 43.9775390625 440.048828125 43.3515625 c 0
 440.104492188 42.4794921875 440.142578125 41.6015625 440.142578125 40.71484375 c 0
 440.142578125 18.1591796875 421.985351562 0 399.4296875 0 c 0
 398.97265625 0 398.51953125 0.0205078125 398.06640625 0.03515625 c 0
 397.837890625 0.021484375 397.610351562 0 397.37890625 0 c 2
 75.052734375 0 l 2
 74.9013671875 0 74.75390625 0.015625 74.603515625 0.021484375 c 0
 74.306640625 0.015625 74.0126953125 0 73.71484375 0 c 0
 51.1591796875 0 33 18.1591796875 33 40.71484375 c 0
 33 63.2705078125 51.1591796875 81.427734375 73.71484375 81.427734375 c 0
 74.0126953125 81.427734375 74.306640625 81.412109375 74.603515625 81.40625 c 0
 74.75390625 81.412109375 74.9013671875 81.427734375 75.052734375 81.427734375 c 2
 358.71484375 81.427734375 l 1
 358.71484375 144.2734375 l 2
 358.71484375 144.6953125 358.75 145.108398438 358.77734375 145.5234375 c 0
 358.740234375 146.0390625 358.71484375 146.55859375 358.71484375 147.083984375 c 0
 358.71484375 179.484375 358.71484375 211.884765625 358.71484375 244.28515625 c 1
 74.341796875 244.28515625 l 2
 74.2724609375 244.28515625 74.2060546875 244.293945312 74.13671875 244.294921875 c 0
 73.9951171875 244.293945312 73.8564453125 244.28515625 73.71484375 244.28515625 c 0
 51.1591796875 244.28515625 33 262.444335938 33 285 c 0
 33 307.555664062 51.1591796875 325.71484375 73.71484375 325.71484375 c 0
 73.8564453125 325.71484375 73.9951171875 325.706054688 74.13671875 325.705078125 c 0
 74.2060546875 325.706054688 74.2724609375 325.71484375 74.341796875 325.71484375 c 2
 358.71484375 325.71484375 l 1
 358.71484375 366.142578125 358.71484375 406.5703125 358.71484375 446.998046875 c 0
 358.71484375 447.094726562 358.727539062 447.1875 358.728515625 447.283203125 c 0
 358.725585938 447.475585938 358.71484375 447.665039062 358.71484375 447.857421875 c 0
 358.71484375 470.413085938 376.874023438 488.572265625 399.4296875 488.572265625 c 0
EndSplineSet
Validated: 524289
EndChar
StartChar: four
Encoding: 52 52 71
Width: 478
VWidth: 0
Flags: HMW
LayerCount: 2
Fore
SplineSet
77 584 m 0
 101 584 118 566 118 542 c 0
 118 472 118 403 118 333 c 1
 173 333 230 333 285 333 c 1
 285 338 l 2
 285 341 286 344 286 347 c 0
 286 349 285 349 285 351 c 2
 285 449 l 2
 285 450 286 452 286 453 c 0
 286 455 285 456 285 458 c 0
 285 482 303 500 327 500 c 0
 351 500 368 482 368 458 c 0
 368 416 368 375 368 333 c 1
 406 333 l 2
 407 333 408 334 408 334 c 2
 409 334 409 333 410 333 c 0
 434 333 452 316 452 292 c 0
 452 268 434 250 410 250 c 0
 396 250 382 250 368 250 c 1
 368 42 l 2
 368 18 351 0 327 0 c 0
 303 0 285 18 285 42 c 0
 285 44 286 45 286 46 c 0
 286 47 285 48 285 49 c 0
 285 116 285 183 285 250 c 1
 77 250 l 2
 53 250 35 268 35 292 c 2
 35 542 l 2
 35 566 53 584 77 584 c 0
EndSplineSet
EndChar
StartChar: five
Encoding: 53 53 72
Width: 476
VWidth: 0
Flags: HMW
LayerCount: 2
Fore
SplineSet
77 570 m 0
 78 570 77 570 78 570 c 2
 79 570 l 2
 184 570 289 570 394 570 c 0
 395 570 396 570 397 570 c 0
 399 570 400 570 402 570 c 0
 425 570 443 552 443 529 c 0
 443 506 425 489 402 489 c 0
 400 489 399 489 397 489 c 0
 396 489 395 489 394 489 c 0
 302 489 209 489 117 489 c 1
 117 325 l 1
 211 325 305 325 399 325 c 1
 400 326 l 2
 401 326 401 325 402 325 c 0
 425 325 443 308 443 285 c 0
 443 284 443 282 443 281 c 0
 443 280 443 279 443 278 c 2
 443 129 l 2
 443 128 443 127 443 126 c 0
 443 125 443 123 443 122 c 0
 443 99 425 81 402 81 c 0
 379 81 362 99 362 122 c 0
 362 123 362 125 362 126 c 0
 362 127 362 128 362 129 c 2
 362 244 l 1
 267 244 173 244 78 244 c 2
 77 244 l 2
 54 244 36 262 36 285 c 0
 36 287 36 288 36 290 c 0
 36 291 36 293 36 295 c 2
 36 519 l 2
 36 521 36 522 36 523 c 0
 36 525 36 527 36 529 c 0
 36 552 54 570 77 570 c 0
362 41 m 0
 362 19 343 0 321 0 c 0
 240 0 159 0 78 0 c 2
 77 0 l 2
 54 0 36 18 36 41 c 0
 36 42 36 42 36 43 c 2
 36 44 l 1
 36 113 l 2
 36 114 36 115 36 116 c 0
 36 118 36 120 36 122 c 0
 36 145 54 163 77 163 c 0
 100 163 117 145 117 122 c 0
 117 120 117 118 117 116 c 0
 117 115 117 114 117 113 c 2
 117 81 l 1
 185 81 253 81 321 81 c 0
 343 81 362 63 362 41 c 0
EndSplineSet
Validated: 1
EndChar
StartChar: six
Encoding: 54 54 73
Width: 477
VWidth: 0
Flags: HMW
LayerCount: 2
Fore
SplineSet
37 530 m 0
 37 553 56 570 78 570 c 0
 79 570 79 570 80 570 c 2
 81 570 l 1
 399 570 l 2
 400 570 401 570 401 570 c 2
 402 570 402 570 403 570 c 0
 426 570 444 552 444 529 c 0
 444 506 426 489 403 489 c 0
 402 489 402 489 401 489 c 2
 401 489 400 489 399 489 c 2
 118 489 l 1
 118 435 118 379 118 325 c 1
 212 325 305 325 399 325 c 0
 400 325 401 326 401 326 c 2
 402 326 402 325 403 325 c 0
 426 325 444 308 444 285 c 0
 444 283 444 282 444 280 c 0
 444 279 444 278 444 277 c 2
 444 131 l 2
 444 130 444 128 444 127 c 0
 444 125 444 124 444 122 c 0
 444 99 426 81 403 81 c 0
 380 81 363 99 363 122 c 0
 363 124 363 125 363 127 c 0
 363 128 363 130 363 131 c 2
 363 244 l 1
 282 244 199 244 118 244 c 1
 118 149 l 2
 118 148 118 148 118 147 c 0
 118 146 118 146 118 145 c 2
 118 81 l 1
 184 81 251 81 317 81 c 0
 318 81 318 81 319 81 c 0
 320 81 321 81 322 81 c 0
 345 81 363 64 363 41 c 0
 363 18 345 0 322 0 c 0
 321 0 320 0 319 0 c 0
 318 0 318 0 317 0 c 0
 238 0 160 0 81 0 c 2
 80 0 l 2
 79 0 79 0 78 0 c 0
 55 0 37 18 37 41 c 0
 37 43 37 45 37 47 c 0
 37 48 37 50 37 51 c 2
 37 145 l 2
 37 146 37 146 37 147 c 0
 37 148 37 148 37 149 c 0
 37 276 37 403 37 530 c 0
EndSplineSet
Validated: 1
EndChar
StartChar: seven
Encoding: 55 55 74
Width: 475
VWidth: 0
Flags: HMW
LayerCount: 2
Fore
SplineSet
68 584 m 2
 400 584 l 2
 424 584 442 566 442 542 c 2
 442 375 l 2
 442 351 424 334 400 334 c 0
 376 334 358 351 358 375 c 0
 358 376 359 377 359 378 c 0
 359 379 358 379 358 380 c 2
 358 501 l 1
 68 501 l 2
 44 501 26 518 26 542 c 0
 26 566 44 584 68 584 c 2
275 294 m 0
 275 317 297 334 317 334 c 0
 337 334 358 317 358 294 c 2
 358 213 l 2
 358 212 359 212 359 211 c 0
 359 210 358 210 358 209 c 0
 358 185 341 167 317 167 c 0
 293 167 275 185 275 209 c 0
 275 238 275 265 275 294 c 0
234 167 m 0
 258 167 275 149 275 125 c 2
 275 42 l 2
 275 18 258 0 234 0 c 0
 210 0 193 18 193 42 c 2
 193 125 l 2
 193 149 210 167 234 167 c 0
EndSplineSet
EndChar
StartChar: eight
Encoding: 56 56 75
Width: 476
VWidth: 0
Flags: HMW
LayerCount: 2
Fore
SplineSet
75 244 m 0
 98 244 115 227 115 204 c 0
 115 163 115 122 115 81 c 1
 360 81 l 1
 360 204 l 2
 360 227 377 244 400 244 c 0
 423 244 441 227 441 204 c 2
 441 41 l 2
 441 18 423 0 400 0 c 2
 75 0 l 2
 52 0 34 18 34 41 c 2
 34 204 l 2
 34 227 52 244 75 244 c 0
156 325 m 2
 319 325 l 2
 342 325 360 308 360 285 c 0
 360 262 342 244 319 244 c 0
 317 244 316 245 314 245 c 0
 313 245 313 244 312 244 c 2
 164 244 l 2
 163 244 162 245 161 245 c 0
 159 245 158 244 156 244 c 0
 133 244 115 262 115 285 c 0
 115 308 133 325 156 325 c 2
400 489 m 0
 423 489 441 471 441 448 c 2
 441 366 l 2
 441 343 423 325 400 325 c 0
 377 325 360 343 360 366 c 2
 360 448 l 2
 360 471 377 489 400 489 c 0
75 489 m 0
 98 489 115 471 115 448 c 2
 115 366 l 2
 115 343 98 325 75 325 c 0
 52 325 34 343 34 366 c 2
 34 448 l 2
 34 471 52 489 75 489 c 0
156 570 m 2
 319 570 l 2
 342 570 360 552 360 529 c 0
 360 506 342 489 319 489 c 2
 156 489 l 2
 133 489 115 506 115 529 c 0
 115 552 133 570 156 570 c 2
EndSplineSet
EndChar
StartChar: nine
Encoding: 57 57 76
Width: 483
VWidth: 0
Flags: HMW
LayerCount: 2
Fore
SplineSet
154 584 m 2
 321 584 l 2
 345 584 361 566 361 542 c 0
 361 518 345 501 321 501 c 2
 154 501 l 2
 130 501 112 518 112 542 c 0
 112 566 130 584 154 584 c 2
71 501 m 0
 95 501 112 483 112 459 c 2
 112 375 l 2
 112 351 95 333 71 333 c 0
 47 333 29 351 29 375 c 2
 29 459 l 2
 29 483 47 501 71 501 c 0
403 501 m 0
 427 501 445 483 445 459 c 2
 445 42 l 2
 445 18 427 0 403 0 c 0
 379 0 361 18 361 42 c 0
 361 44 362 45 362 47 c 0
 362 48 361 50 361 51 c 0
 361 118 361 183 361 250 c 1
 154 250 l 2
 130 250 112 268 112 292 c 0
 112 316 130 333 154 333 c 1
 155 334 l 1
 155 333 l 1
 224 333 292 333 361 333 c 1
 361 348 l 2
 361 349 362 349 362 350 c 0
 362 351 361 351 361 352 c 2
 361 454 l 2
 361 455 362 455 362 456 c 0
 362 457 361 458 361 459 c 0
 361 483 379 501 403 501 c 0
EndSplineSet
EndChar
StartChar: colon
Encoding: 58 58 77
Width: 145
VWidth: 0
Flags: W
HStem: 162.857 81.4277<35.9001 107.53> 325.715 81.4277<35.9001 107.53>
VStem: 31 81.4297<167.757 239.386 330.614 402.243>
LayerCount: 2
Fore
SplineSet
71.71484375 407.142578125 m 0
 94.2705078125 407.142578125 112.4296875 388.983398438 112.4296875 366.427734375 c 0
 112.4296875 343.872070312 94.2705078125 325.71484375 71.71484375 325.71484375 c 0
 49.1591796875 325.71484375 31 343.872070312 31 366.427734375 c 0
 31 388.983398438 49.1591796875 407.142578125 71.71484375 407.142578125 c 0
71.71484375 244.28515625 m 0
 94.2705078125 244.28515625 112.4296875 226.127929688 112.4296875 203.572265625 c 0
 112.4296875 181.016601562 94.2705078125 162.857421875 71.71484375 162.857421875 c 0
 49.1591796875 162.857421875 31 181.016601562 31 203.572265625 c 0
 31 226.127929688 49.1591796875 244.28515625 71.71484375 244.28515625 c 0
EndSplineSet
Validated: 524289
EndChar
StartChar: semicolon
Encoding: 59 59 78
Width: 223
VWidth: 0
Flags: HW
LayerCount: 2
Fore
SplineSet
146.142578125 325.71484375 m 0
 168.698242188 325.71484375 186.857421875 307.555664062 186.857421875 285 c 0
 186.857421875 262.444335938 168.698242188 244.28515625 146.142578125 244.28515625 c 0
 123.586914062 244.28515625 105.427734375 262.444335938 105.427734375 285 c 0
 105.427734375 307.555664062 123.586914062 325.71484375 146.142578125 325.71484375 c 0
146.142578125 81.427734375 m 0
 168.698242188 81.427734375 186.857421875 63.2705078125 186.857421875 40.71484375 c 0
 186.857421875 18.1591796875 168.698242188 0 146.142578125 0 c 0
 123.586914062 0 105.427734375 18.1591796875 105.427734375 40.71484375 c 0
 105.427734375 63.2705078125 123.586914062 81.427734375 146.142578125 81.427734375 c 0
64.71484375 0 m 0
 87.2705078125 0 105.427734375 -18.1591796875 105.427734375 -40.71484375 c 0
 105.427734375 -63.2705078125 87.2705078125 -81.427734375 64.71484375 -81.427734375 c 0
 42.1591796875 -81.427734375 24 -63.2705078125 24 -40.71484375 c 0
 24 -18.1591796875 42.1591796875 0 64.71484375 0 c 0
EndSplineSet
EndChar
StartChar: less
Encoding: 60 60 79
Width: 389
VWidth: 0
Flags: HMW
LayerCount: 2
Fore
SplineSet
317 584 m 0
 341 584 358 566 358 542 c 0
 358 518 341 500 317 500 c 0
 293 500 275 518 275 542 c 0
 275 566 293 584 317 584 c 0
204 500 m 2
 264 500 l 2
 270 500 275 494 275 488 c 2
 275 428 l 2
 275 422 270 417 264 417 c 2
 204 417 l 2
 198 417 193 422 193 428 c 2
 193 488 l 2
 193 494 198 500 204 500 c 2
121 417 m 2
 181 417 l 2
 187 417 193 412 193 406 c 2
 193 345 l 2
 193 339 187 333 181 333 c 2
 121 333 l 2
 115 333 109 339 109 345 c 2
 109 406 l 2
 109 412 115 417 121 417 c 2
68 333 m 0
 92 333 109 316 109 292 c 0
 109 268 92 250 68 250 c 0
 44 250 26 268 26 292 c 0
 26 316 44 333 68 333 c 0
121 250 m 2
 181 250 l 2
 187 250 193 245 193 239 c 2
 193 178 l 2
 193 172 187 166 181 166 c 2
 121 166 l 2
 115 166 109 172 109 178 c 2
 109 239 l 2
 109 245 115 250 121 250 c 2
204 166 m 2
 264 166 l 2
 270 166 275 162 275 156 c 2
 275 95 l 2
 275 89 270 83 264 83 c 2
 204 83 l 2
 198 83 193 89 193 95 c 2
 193 156 l 2
 193 162 198 166 204 166 c 2
317 83 m 0
 341 83 358 66 358 42 c 0
 358 18 341 0 317 0 c 0
 293 0 275 18 275 42 c 0
 275 66 293 83 317 83 c 0
EndSplineSet
EndChar
StartChar: equal
Encoding: 61 61 80
Width: 308
VWidth: 0
Flags: W
HStem: 162.857 81.4277<35.7127 270.572> 325.715 81.4277<35.7128 270.572>
VStem: 31 244.285<167.477 239.666 330.334 402.523>
LayerCount: 2
Fore
SplineSet
31 366.427734375 m 0
 31 388.024538808 48.2642489816 407.142578125 70.681640625 407.142578125 c 2
 235.6015625 407.142578125 l 2
 257.898808249 407.142578125 275.28515625 388.089547157 275.28515625 366.427734375 c 0
 275.28515625 344.83097069 258.022493535 325.71484375 235.6015625 325.71484375 c 2
 70.681640625 325.71484375 l 2
 48.3858138247 325.71484375 31 344.767161262 31 366.427734375 c 0
31 203.572265625 m 0
 31 225.16904835 48.2615893099 244.28515625 70.681640625 244.28515625 c 2
 235.6015625 244.28515625 l 2
 257.898774453 244.28515625 275.28515625 225.234051713 275.28515625 203.572265625 c 0
 275.28515625 181.976217016 258.02252403 162.857421875 235.6015625 162.857421875 c 2
 70.681640625 162.857421875 l 2
 48.3852802596 162.857421875 31 181.91118198 31 203.572265625 c 0
EndSplineSet
Validated: 524289
EndChar
StartChar: greater
Encoding: 62 62 81
Width: 379
VWidth: 0
Flags: HMW
LayerCount: 2
Fore
SplineSet
69 570 m 0
 92 570 109 552 109 529 c 0
 109 506 92 488 69 488 c 0
 46 488 28 506 28 529 c 0
 28 552 46 570 69 570 c 0
121 488 m 2
 180 488 l 2
 186 488 191 483 191 477 c 2
 191 418 l 2
 191 412 186 407 180 407 c 2
 121 407 l 2
 115 407 109 412 109 418 c 2
 109 477 l 2
 109 483 115 488 121 488 c 2
202 407 m 2
 261 407 l 2
 267 407 272 402 272 396 c 2
 272 337 l 2
 272 331 267 325 261 325 c 2
 202 325 l 2
 196 325 191 331 191 337 c 2
 191 396 l 2
 191 402 196 407 202 407 c 2
313 325 m 0
 336 325 353 308 353 285 c 0
 353 262 336 244 313 244 c 0
 290 244 272 262 272 285 c 0
 272 308 290 325 313 325 c 0
202 244 m 2
 261 244 l 2
 267 244 272 239 272 233 c 2
 272 174 l 2
 272 168 267 162 261 162 c 2
 202 162 l 2
 196 162 191 168 191 174 c 2
 191 233 l 2
 191 239 196 244 202 244 c 2
121 162 m 2
 180 162 l 2
 186 162 191 158 191 152 c 2
 191 93 l 2
 191 87 186 81 180 81 c 2
 121 81 l 2
 115 81 109 87 109 93 c 2
 109 152 l 2
 109 158 115 162 121 162 c 2
69 81 m 0
 92 81 109 64 109 41 c 0
 109 18 92 0 69 0 c 0
 46 0 28 18 28 41 c 0
 28 64 46 81 69 81 c 0
EndSplineSet
Validated: 1
EndChar
StartChar: question
Encoding: 63 63 82
Width: 322
VWidth: 0
Flags: HMW
LayerCount: 2
Fore
SplineSet
36 292 m 2
 36 315 54 333 77 333 c 2
 203 333 l 1
 203 389 203 445 203 501 c 1
 78 501 l 2
 54 501 36 518 36 542 c 0
 36 566 54 584 78 584 c 2
 245 584 l 2
 269 584 286 566 286 542 c 0
 286 458 286 374 286 290 c 0
 286 267 265 250 245 250 c 2
 119 250 l 1
 119 209 l 2
 119 185 102 167 78 167 c 0
 54 167 36 185 36 209 c 2
 36 292 l 2
78 83 m 0
 102 83 119 66 119 42 c 0
 119 18 102 0 78 0 c 0
 54 0 36 18 36 42 c 0
 36 66 54 83 78 83 c 0
EndSplineSet
EndChar
StartChar: at
Encoding: 64 64 83
Width: 479
VWidth: 0
Flags: HMW
LayerCount: 2
Fore
SplineSet
78 571 m 0
 80 571 82 570 84 570 c 0
 162 570 240 570 318 570 c 2
 319 570 l 2
 320 570 321 570 322 570 c 0
 345 570 363 552 363 529 c 0
 363 506 345 489 322 489 c 0
 321 489 320 489 319 489 c 2
 318 489 l 2
 251 489 185 489 118 489 c 1
 118 45 l 2
 118 44 118 44 118 43 c 0
 118 42 118 42 118 41 c 0
 118 18 101 0 78 0 c 0
 55 0 37 18 37 41 c 0
 37 42 37 42 37 43 c 0
 37 44 37 44 37 45 c 2
 37 526 l 1
 37 528 l 2
 37 529 37 529 37 530 c 0
 37 553 55 571 78 571 c 0
200 285 m 0
 200 306 217 325 239 325 c 2
 363 325 l 1
 363 443 l 2
 363 444 363 444 363 445 c 0
 363 446 363 447 363 448 c 0
 363 471 380 489 403 489 c 0
 426 489 444 471 444 448 c 0
 444 447 444 446 444 445 c 0
 444 444 444 444 444 443 c 2
 444 128 l 2
 444 127 444 127 444 126 c 0
 444 125 444 123 444 122 c 0
 444 99 426 81 403 81 c 0
 402 81 403 81 402 81 c 2
 401 81 l 1
 243 81 l 1
 242 81 l 2
 241 81 242 81 241 81 c 0
 218 81 200 99 200 122 c 2
 200 123 l 1
 200 125 l 1
 200 280 l 2
 200 281 200 281 200 282 c 0
 200 283 200 284 200 285 c 0
281 244 m 1
 281 162 l 1
 363 162 l 1
 363 244 l 1
 281 244 l 1
EndSplineSet
Validated: 1
EndChar
StartChar: A
Encoding: 65 65 0
Width: 446
VWidth: 0
Flags: HMW
LayerCount: 2
Fore
SplineSet
122.24609375 552.552734375 m 2
 382.666015625 552.552734375 l 2
 382.815429688 552.552734375 382.961914062 552.5390625 383.109375 552.529296875 c 0
 383.3984375 552.540039062 383.688476562 552.552734375 383.98046875 552.552734375 c 0
 396.870117188 552.552734375 407.24609375 542.174804688 407.24609375 529.28515625 c 0
 407.24609375 529.149414062 407.23828125 529.015625 407.236328125 528.880859375 c 0
 407.237304688 528.815429688 407.24609375 528.750976562 407.24609375 528.685546875 c 2
 407.24609375 61.693359375 l 2
 407.24609375 61.103515625 407.215820312 60.521484375 407.171875 59.943359375 c 0
 407.215820312 59.35546875 407.24609375 58.76171875 407.24609375 58.162109375 c 2
 407.24609375 23.265625 l 2
 407.24609375 10.3759765625 396.870117188 0 383.98046875 0 c 0
 371.090820312 0 360.712890625 10.3759765625 360.712890625 23.265625 c 2
 360.712890625 58.162109375 l 2
 360.712890625 58.759765625 360.743164062 59.3515625 360.787109375 59.9375 c 0
 360.743164062 60.517578125 360.712890625 61.1015625 360.712890625 61.693359375 c 2
 360.712890625 261.734375 l 1
 81.53125 261.734375 l 1
 81.53125 182.244791667 81.53125 102.755208333 81.53125 23.265625 c 0
 81.53125 10.3759765625 71.1552734375 0 58.265625 0 c 0
 45.3759765625 0 35 10.3759765625 35 23.265625 c 2
 35 427.392578125 l 2
 35 427.897460938 35.0205078125 428.396484375 35.052734375 428.892578125 c 0
 35.0205078125 429.39453125 35 429.897460938 35 430.408203125 c 2
 35 465.3046875 l 2
 35 478.194335938 45.3759765625 488.572265625 58.265625 488.572265625 c 0
 71.1552734375 488.572265625 81.53125 478.194335938 81.53125 465.3046875 c 2
 81.53125 430.408203125 l 2
 81.53125 429.897460938 81.5107421875 429.39453125 81.478515625 428.892578125 c 0
 81.5107421875 428.396484375 81.53125 427.897460938 81.53125 427.392578125 c 0
 81.53125 387.68359375 81.53125 347.974609375 81.53125 308.265625 c 1
 360.712890625 308.265625 l 1
 360.712890625 506.01953125 l 1
 122.24609375 506.01953125 l 2
 109.356445312 506.01953125 98.98046875 516.395507812 98.98046875 529.28515625 c 0
 98.98046875 542.174804688 109.356445312 552.552734375 122.24609375 552.552734375 c 2
EndSplineSet
EndChar
StartChar: B
Encoding: 66 66 3
Width: 445
VWidth: 0
Flags: HMW
LayerCount: 2
Fore
SplineSet
81.53125 261.734375 m 1
 81.53125 63.98046875 l 1
 360.712890625 63.98046875 l 1
 360.712890625 116.358072917 360.712890625 168.735677083 360.712890625 221.11328125 c 0
 360.712890625 221.196289062 360.717773438 221.27734375 360.71875 221.359375 c 0
 360.717773438 221.443359375 360.712890625 221.526367188 360.712890625 221.611328125 c 2
 360.712890625 261.734375 l 1
 81.53125 261.734375 l 1
57.853515625 17.447265625 m 2
 45.0753415596 17.447265625 35 28.1845798334 35 40.71484375 c 0
 35 40.9736328125 35.0107421875 41.2294921875 35.01953125 41.486328125 c 0
 35.0166015625 41.6123046875 35 41.734375 35 41.861328125 c 2
 35 528.09375 l 2
 35 528.2265625 35.0146484375 528.354492188 35.01953125 528.486328125 c 0
 35.0107421875 528.751953125 35 529.017578125 35 529.28515625 c 0
 35 542.174804688 45.3759765625 552.552734375 58.265625 552.552734375 c 0
 58.33203125 552.552734375 58.3984375 552.547851562 58.46484375 552.546875 c 0
 58.4990234375 552.547851562 58.5322265625 552.552734375 58.56640625 552.552734375 c 0
 145.7109375 552.552734375 232.85546875 552.552734375 320 552.552734375 c 0
 332.889648438 552.552734375 343.265625 542.174804688 343.265625 529.28515625 c 0
 343.265625 516.395507812 332.889648438 506.01953125 320 506.01953125 c 0
 240.510416667 506.01953125 161.020833333 506.01953125 81.53125 506.01953125 c 1
 81.53125 440.1015625 81.53125 374.18359375 81.53125 308.265625 c 1
 360.712890625 308.265625 l 1
 360.712890625 465.3046875 l 2
 360.712890625 478.194335938 371.090820312 488.572265625 383.98046875 488.572265625 c 0
 396.870117188 488.572265625 407.24609375 478.194335938 407.24609375 465.3046875 c 0
 407.24609375 384.073567708 407.24609375 302.842447917 407.24609375 221.611328125 c 0
 407.24609375 221.526367188 407.241210938 221.443359375 407.240234375 221.359375 c 0
 407.241210938 221.27734375 407.24609375 221.196289062 407.24609375 221.11328125 c 0
 407.24609375 161.272135417 407.24609375 101.430989583 407.24609375 41.58984375 c 0
 407.24609375 41.4931640625 407.234375 41.3994140625 407.232421875 41.302734375 c 0
 407.237304688 41.1064453125 407.24609375 40.912109375 407.24609375 40.71484375 c 0
 407.24609375 27.8251953125 396.870117188 17.447265625 383.98046875 17.447265625 c 0
 383.432617188 17.447265625 382.889648438 17.474609375 382.3515625 17.51171875 c 0
 382.072265625 17.474609375 381.790039062 17.447265625 381.5 17.447265625 c 2
 57.853515625 17.447265625 l 2
EndSplineSet
EndChar
StartChar: C
Encoding: 67 67 4
Width: 457
VWidth: 0
Flags: HMW
LayerCount: 2
Fore
SplineSet
58.265625 488.572265625 m 0
 71.1552734375 488.572265625 81.53125 478.194335938 81.53125 465.3046875 c 2
 81.53125 430.408203125 l 2
 81.53125 429.796875 81.5009765625 429.194335938 81.455078125 428.595703125 c 0
 81.501953125 428.1796875 81.53125 427.758789062 81.53125 427.330078125 c 2
 81.53125 63.98046875 l 1
 188.163411458 63.98046875 294.795572917 63.98046875 401.427734375 63.98046875 c 0
 414.317382812 63.98046875 424.693359375 53.6044921875 424.693359375 40.71484375 c 0
 424.693359375 27.8251953125 414.317382812 17.447265625 401.427734375 17.447265625 c 2
 127.19140625 17.447265625 l 1
 58.39453125 17.451171875 l 0
 58.3515625 17.451171875 58.30859375 17.447265625 58.265625 17.447265625 c 0
 45.3759765625 17.447265625 35 27.8251953125 35 40.71484375 c 0
 35 41.095703125 35.009765625 41.474609375 35.02734375 41.8515625 c 0
 35.0185546875 42.0380859375 35 42.2216796875 35 42.41015625 c 2
 35 427.330078125 l 2
 35 427.758789062 35.029296875 428.1796875 35.076171875 428.595703125 c 0
 35.0302734375 429.194335938 35 429.796875 35 430.408203125 c 2
 35 465.3046875 l 2
 35 478.194335938 45.3759765625 488.572265625 58.265625 488.572265625 c 0
122.24609375 552.552734375 m 2
 401.427734375 552.552734375 l 2
 414.317382812 552.552734375 424.693359375 542.174804688 424.693359375 529.28515625 c 0
 424.693359375 516.395507812 414.317382812 506.01953125 401.427734375 506.01953125 c 2
 122.24609375 506.01953125 l 2
 109.356445312 506.01953125 98.98046875 516.395507812 98.98046875 529.28515625 c 0
 98.98046875 542.174804688 109.356445312 552.552734375 122.24609375 552.552734375 c 2
EndSplineSet
EndChar
StartChar: D
Encoding: 68 68 5
Width: 444
VWidth: 0
Flags: HMW
LayerCount: 2
Fore
SplineSet
383.98046875 407.142578125 m 0
 396.870117188 407.142578125 407.24609375 396.766601562 407.24609375 383.876953125 c 0
 407.24609375 290.81640625 407.24609375 197.755859375 407.24609375 104.6953125 c 0
 407.24609375 91.8056640625 396.870117188 81.427734375 383.98046875 81.427734375 c 0
 371.090820312 81.427734375 360.712890625 91.8056640625 360.712890625 104.6953125 c 0
 360.712890625 197.755859375 360.712890625 290.81640625 360.712890625 383.876953125 c 0
 360.712890625 396.766601562 371.090820312 407.142578125 383.98046875 407.142578125 c 0
302.55078125 471.123046875 m 0
 315.440429688 471.123046875 325.818359375 460.747070312 325.818359375 447.857421875 c 0
 325.818359375 434.967773438 315.440429688 424.591796875 302.55078125 424.591796875 c 0
 289.661132812 424.591796875 279.28515625 434.967773438 279.28515625 447.857421875 c 0
 279.28515625 460.747070312 289.661132812 471.123046875 302.55078125 471.123046875 c 0
58.265625 552.552734375 m 0
 58.421875 552.552734375 58.5751953125 552.543945312 58.73046875 552.541015625 c 0
 58.8095703125 552.543945312 58.88671875 552.552734375 58.966796875 552.552734375 c 0
 118.834635417 552.552734375 178.702473958 552.552734375 238.5703125 552.552734375 c 0
 251.459960938 552.552734375 261.837890625 542.174804688 261.837890625 529.28515625 c 0
 261.837890625 516.395507812 251.459960938 506.01953125 238.5703125 506.01953125 c 0
 186.223958333 506.01953125 133.877604167 506.01953125 81.53125 506.01953125 c 1
 81.53125 63.98046875 l 1
 320 63.98046875 l 2
 332.889648438 63.98046875 343.265625 53.6044921875 343.265625 40.71484375 c 0
 343.265625 27.8251953125 332.889648438 17.447265625 320 17.447265625 c 0
 255.7578125 17.447265625 191.515625 17.447265625 127.2734375 17.447265625 c 2
 58.451171875 17.451171875 l 0
 58.388671875 17.451171875 58.328125 17.447265625 58.265625 17.447265625 c 0
 45.3759765625 17.447265625 35 27.8251953125 35 40.71484375 c 0
 35 41.1220703125 35.0107421875 41.52734375 35.03125 41.9296875 c 0
 35.0205078125 42.1328125 35 42.3349609375 35 42.541015625 c 2
 35 527.638671875 l 2
 35 527.822265625 35.0185546875 528 35.02734375 528.181640625 c 0
 35.0107421875 528.547851562 35 528.9140625 35 529.28515625 c 0
 35 542.174804688 45.3759765625 552.552734375 58.265625 552.552734375 c 0
EndSplineSet
EndChar
StartChar: E
Encoding: 69 69 31
Width: 475
VWidth: 0
Flags: HW
CounterMasks: 1 e0
LayerCount: 2
Fore
SplineSet
156.142578125 570 m 0
 156.21875 570 156.29296875 569.994140625 156.369140625 569.994140625 c 0
 156.407226562 569.994140625 156.444335938 570 156.482421875 570 c 0
 235.046223958 570 313.610026042 570 392.173828125 570 c 0
 393.146484375 570 394.0859375 569.86328125 394.984375 569.630859375 c 0
 396.766601562 569.8671875 398.581054688 570 400.4296875 570 c 0
 422.985351562 570 441.142578125 551.840820312 441.142578125 529.28515625 c 0
 441.142578125 506.729492188 422.985351562 488.572265625 400.4296875 488.572265625 c 0
 398.581054688 488.572265625 396.766601562 488.705078125 394.984375 488.94140625 c 0
 394.0859375 488.708984375 393.146484375 488.572265625 392.173828125 488.572265625 c 0
 313.610026042 488.572265625 235.046223958 488.572265625 156.482421875 488.572265625 c 0
 156.444335938 488.572265625 156.407226562 488.578125 156.369140625 488.578125 c 0
 156.29296875 488.578125 156.21875 488.572265625 156.142578125 488.572265625 c 0
 133.586914062 488.572265625 115.4296875 506.729492188 115.4296875 529.28515625 c 0
 115.4296875 551.840820312 133.586914062 570 156.142578125 570 c 0
74.71484375 488.572265625 m 0
 97.2705078125 488.572265625 115.4296875 470.413085938 115.4296875 447.857421875 c 0
 115.4296875 446.797851562 115.375976562 445.751953125 115.296875 444.712890625 c 0
 115.381835938 443.817382812 115.4296875 442.912109375 115.4296875 441.994140625 c 0
 115.4296875 403.234375 115.4296875 364.474609375 115.4296875 325.71484375 c 1
 398.9609375 325.71484375 l 2
 399.124023438 325.71484375 399.282226562 325.696289062 399.443359375 325.689453125 c 0
 399.772460938 325.697265625 400.098632812 325.71484375 400.4296875 325.71484375 c 0
 422.985351562 325.71484375 441.142578125 307.555664062 441.142578125 285 c 0
 441.142578125 262.444335938 422.985351562 244.28515625 400.4296875 244.28515625 c 0
 400.098632812 244.28515625 399.772460938 244.302734375 399.443359375 244.310546875 c 0
 399.282226562 244.303710938 399.124023438 244.28515625 398.9609375 244.28515625 c 2
 115.4296875 244.28515625 l 1
 115.4296875 81.427734375 l 1
 398.857421875 81.427734375 l 2
 399.03515625 81.427734375 399.208984375 81.41015625 399.384765625 81.40234375 c 0
 399.733398438 81.4111328125 400.079101562 81.427734375 400.4296875 81.427734375 c 0
 422.985351562 81.427734375 441.142578125 63.2705078125 441.142578125 40.71484375 c 0
 441.142578125 18.1591796875 422.985351562 0 400.4296875 0 c 0
 400.079101562 0 399.733398438 0.0166015625 399.384765625 0.025390625 c 0
 399.208984375 0.017578125 399.03515625 0 398.857421875 0 c 2
 77.296875 0 l 2
 77.00390625 0 76.716796875 0.021484375 76.4296875 0.04296875 c 0
 75.8603515625 0.01953125 75.2900390625 0 74.71484375 0 c 0
 52.1591796875 0 34 18.1591796875 34 40.71484375 c 0
 34 41.439453125 34.01953125 42.16015625 34.056640625 42.875 c 0
 34.0224609375 43.4521484375 34 44.0322265625 34 44.6171875 c 2
 34 441.994140625 l 2
 34 442.912109375 34.0478515625 443.817382812 34.1328125 444.712890625 c 0
 34.0537109375 445.751953125 34 446.797851562 34 447.857421875 c 0
 34 470.413085938 52.1591796875 488.572265625 74.71484375 488.572265625 c 0
EndSplineSet
EndChar
StartChar: F
Encoding: 70 70 30
Width: 466
VWidth: 0
Flags: HMW
LayerCount: 2
Fore
SplineSet
125 566 m 0
 220 566 316 566 411 566 c 0
 424 566 435 555 435 542 c 0
 435 529 424 518 411 518 c 0
 316 518 220 518 125 518 c 0
 112 518 101 529 101 542 c 0
 101 555 112 566 125 566 c 0
59 501 m 0
 72 501 84 489 84 476 c 2
 84 315 l 1
 194 315 301 315 411 315 c 0
 424 315 435 305 435 292 c 0
 435 279 424 268 411 268 c 0
 301 268 194 268 84 268 c 1
 84 24 l 2
 84 11 72 0 59 0 c 0
 46 0 36 11 36 24 c 2
 36 476 l 2
 36 489 46 501 59 501 c 0
EndSplineSet
EndChar
StartChar: G
Encoding: 71 71 29
Width: 451
VWidth: 0
Flags: HMW
LayerCount: 2
Fore
SplineSet
383.98046875 308.265625 m 0
 395.885171067 308.265625 407.24609375 298.801242831 407.24609375 286.03125 c 2
 407.24609375 104.6953125 l 2
 407.24609375 91.8056640625 396.870117188 81.427734375 383.98046875 81.427734375 c 0
 371.090820312 81.427734375 360.712890625 91.8056640625 360.712890625 104.6953125 c 2
 360.712890625 261.734375 l 1
 335.509765625 261.734375 310.306640625 261.734375 285.103515625 261.734375 c 0
 272.213867188 261.734375 261.837890625 272.110351562 261.837890625 285 c 0
 261.837890625 297.889648438 272.213867188 308.265625 285.103515625 308.265625 c 0
 317.475911458 308.265625 349.848307292 308.265625 382.220703125 308.265625 c 0
 382.420898438 308.265625 382.619140625 308.25390625 382.814453125 308.236328125 c 0
 383.200195312 308.254882812 383.58984375 308.265625 383.98046875 308.265625 c 0
58.265625 488.572265625 m 0
 71.1552734375 488.572265625 81.53125 478.194335938 81.53125 465.3046875 c 0
 81.53125 348.457682292 81.53125 231.610677083 81.53125 114.763671875 c 0
 81.53125 111.6015625 81.2216796875 108.548828125 80.65234375 105.654296875 c 0
 81.21875 104.318359375 81.53125 102.84765625 81.53125 101.30078125 c 2
 81.53125 63.98046875 l 1
 320 63.98046875 l 2
 332.889648438 63.98046875 343.265625 53.6044921875 343.265625 40.71484375 c 0
 343.265625 27.8251953125 332.889648438 17.447265625 320 17.447265625 c 2
 59.2578125 17.447265625 l 2
 59.14453125 17.447265625 59.03515625 17.458984375 58.923828125 17.46484375 c 0
 58.705078125 17.458984375 58.486328125 17.447265625 58.265625 17.447265625 c 0
 45.3759765625 17.447265625 35 27.8251953125 35 40.71484375 c 0
 35 41.025390625 35.01171875 41.3330078125 35.0234375 41.640625 c 0
 35.017578125 41.79296875 35 41.9423828125 35 42.095703125 c 2
 35 101.30078125 l 2
 35 102.848632812 35.3125 104.3203125 35.87890625 105.65625 c 0
 35.310546875 108.55078125 35 111.602539062 35 114.763671875 c 0
 35 231.610677083 35 348.457682292 35 465.3046875 c 0
 35 478.194335938 45.3759765625 488.572265625 58.265625 488.572265625 c 0
122.24609375 552.552734375 m 0
 215.306640625 552.552734375 308.3671875 552.552734375 401.427734375 552.552734375 c 0
 414.317382812 552.552734375 424.693359375 542.174804688 424.693359375 529.28515625 c 0
 424.693359375 516.395507812 414.317382812 506.01953125 401.427734375 506.01953125 c 0
 308.3671875 506.01953125 215.306640625 506.01953125 122.24609375 506.01953125 c 0
 109.356445312 506.01953125 98.98046875 516.395507812 98.98046875 529.28515625 c 0
 98.98046875 542.174804688 109.356445312 552.552734375 122.24609375 552.552734375 c 0
EndSplineSet
EndChar
StartChar: H
Encoding: 72 72 28
Width: 446
VWidth: 0
Flags: HMW
LayerCount: 2
Fore
SplineSet
383.98046875 570 m 0
 396.870117188 570 407.24609375 559.624023438 407.24609375 546.734375 c 2
 407.24609375 23.265625 l 2
 407.24609375 10.3759765625 396.870117188 0 383.98046875 0 c 0
 371.090820312 0 360.712890625 10.3759765625 360.712890625 23.265625 c 0
 360.712890625 102.755208333 360.712890625 182.244791667 360.712890625 261.734375 c 1
 81.53125 261.734375 l 1
 81.53125 225.134765625 81.53125 188.53515625 81.53125 151.935546875 c 0
 81.53125 150.999023438 81.443359375 150.083984375 81.31640625 149.18359375 c 0
 81.4462890625 148.354492188 81.53125 147.510742188 81.53125 146.64453125 c 2
 81.53125 60.265625 l 2
 81.53125 60.001953125 81.5048828125 59.7451171875 81.4921875 59.484375 c 0
 81.5166015625 59.046875 81.53125 58.6064453125 81.53125 58.162109375 c 2
 81.53125 23.265625 l 2
 81.53125 10.3759765625 71.1552734375 0 58.265625 0 c 0
 45.3759765625 0 35 10.3759765625 35 23.265625 c 2
 35 58.162109375 l 2
 35 58.6064453125 35.0146484375 59.046875 35.0390625 59.484375 c 0
 35.0263671875 59.7451171875 35 60.001953125 35 60.265625 c 2
 35 146.64453125 l 2
 35 147.510742188 35.0849609375 148.354492188 35.21484375 149.18359375 c 0
 35.087890625 150.083984375 35 150.999023438 35 151.935546875 c 0
 35 256.391927083 35 360.848307292 35 465.3046875 c 0
 35 478.194335938 45.3759765625 488.572265625 58.265625 488.572265625 c 0
 71.1552734375 488.572265625 81.53125 478.194335938 81.53125 465.3046875 c 2
 81.53125 308.265625 l 1
 360.712890625 308.265625 l 1
 360.712890625 387.755208333 360.712890625 467.244791667 360.712890625 546.734375 c 0
 360.712890625 559.624023438 371.090820312 570 383.98046875 570 c 0
EndSplineSet
EndChar
StartChar: I
Encoding: 73 73 1
Width: 473
VWidth: 0
Flags: HMW
LayerCount: 2
Fore
SplineSet
134 566 m 0
 229 566 325 566 420 566 c 0
 433 566 443 555 443 542 c 0
 443 529 433 518 420 518 c 0
 367 518 312 518 259 518 c 1
 259 395 259 274 259 151 c 2
 259 150 l 1
 259 66 l 1
 312 66 367 66 420 66 c 0
 433 66 443 55 443 42 c 0
 443 29 433 17 420 17 c 2
 50 17 l 2
 37 17 27 29 27 42 c 0
 27 55 37 66 50 66 c 2
 211 66 l 1
 211 150 l 1
 211 151 l 2
 211 274 211 395 211 518 c 1
 185 518 160 518 134 518 c 0
 121 518 110 529 110 542 c 0
 110 555 121 566 134 566 c 0
EndSplineSet
EndChar
StartChar: J
Encoding: 74 74 27
Width: 456
VWidth: 0
Flags: HMW
LayerCount: 2
Fore
SplineSet
252.837890625 40.71484375 m 0
 252.837890625 28.2023155063 242.777773379 17.447265625 230.0078125 17.447265625 c 2
 49.267578125 17.447265625 l 2
 36.3779296875 17.447265625 26 27.8251953125 26 40.71484375 c 0
 26 53.6044921875 36.3779296875 63.98046875 49.267578125 63.98046875 c 2
 206.306640625 63.98046875 l 1
 206.306640625 506.01953125 l 1
 181.102864583 506.01953125 155.899088542 506.01953125 130.6953125 506.01953125 c 0
 117.805664062 506.01953125 107.4296875 516.395507812 107.4296875 529.28515625 c 0
 107.4296875 542.174804688 117.805664062 552.552734375 130.6953125 552.552734375 c 0
 223.755859375 552.552734375 316.81640625 552.552734375 409.876953125 552.552734375 c 0
 422.766601562 552.552734375 433.142578125 542.174804688 433.142578125 529.28515625 c 0
 433.142578125 516.395507812 422.766601562 506.01953125 409.876953125 506.01953125 c 0
 357.530598958 506.01953125 305.184244792 506.01953125 252.837890625 506.01953125 c 1
 252.837890625 41.90625 l 2
 252.837890625 41.7734375 252.823242188 41.6455078125 252.818359375 41.513671875 c 0
 252.827148438 41.248046875 252.837890625 40.982421875 252.837890625 40.71484375 c 0
EndSplineSet
EndChar
StartChar: K
Encoding: 75 75 26
Width: 447
VWidth: 0
Flags: HMW
LayerCount: 2
Fore
SplineSet
60 584 m 0
 73 584 85 573 85 560 c 0
 85 518 85 476 85 434 c 1
 84 433 l 1
 85 432 l 1
 85 393 85 354 85 315 c 1
 162 315 l 2
 166 315 168 313 168 309 c 2
 168 274 l 2
 168 270 166 268 162 268 c 2
 85 268 l 1
 85 222 85 176 85 130 c 0
 85 128 84 125 83 123 c 0
 84 122 85 120 85 118 c 0
 85 86 85 56 85 24 c 0
 85 11 73 0 60 0 c 0
 47 0 37 11 37 24 c 0
 37 56 37 86 37 118 c 0
 37 120 37 122 38 123 c 0
 37 125 37 128 37 130 c 2
 37 432 l 1
 37 433 l 1
 37 434 l 2
 37 476 37 518 37 560 c 0
 37 573 47 584 60 584 c 0
311 501 m 0
 324 501 335 489 335 476 c 2
 335 440 l 2
 335 427 324 417 311 417 c 0
 298 417 287 427 287 440 c 2
 287 476 l 2
 287 489 298 501 311 501 c 0
246 417 m 2
 281 417 l 2
 285 417 287 415 287 411 c 2
 287 376 l 2
 287 372 285 370 281 370 c 2
 246 370 l 2
 242 370 240 372 240 376 c 2
 240 411 l 2
 240 415 242 417 246 417 c 2
199 370 m 2
 232 370 l 2
 236 370 240 366 240 362 c 2
 240 328 l 2
 240 324 236 322 232 322 c 2
 199 322 l 2
 195 322 191 324 191 328 c 2
 191 362 l 2
 191 366 195 370 199 370 c 2
174 268 m 2
 209 268 l 2
 213 268 215 265 215 261 c 2
 215 227 l 2
 215 223 213 220 209 220 c 2
 174 220 l 2
 170 220 168 223 168 227 c 2
 168 261 l 2
 168 265 170 268 174 268 c 2
233 226 m 2
 268 226 l 2
 272 226 275 224 275 220 c 2
 275 185 l 2
 275 181 272 178 268 178 c 2
 233 178 l 2
 229 178 227 181 227 185 c 2
 227 220 l 2
 227 224 229 226 233 226 c 2
282 178 m 2
 316 178 l 2
 320 178 323 176 323 172 c 2
 323 137 l 2
 323 133 320 131 316 131 c 2
 282 131 l 2
 278 131 275 133 275 137 c 2
 275 172 l 2
 275 176 278 178 282 178 c 2
330 131 m 2
 364 131 l 2
 368 131 371 129 371 125 c 2
 371 90 l 2
 371 86 368 83 364 83 c 2
 330 83 l 2
 326 83 323 86 323 90 c 2
 323 125 l 2
 323 129 326 131 330 131 c 2
394 83 m 0
 407 83 418 72 418 59 c 2
 418 24 l 2
 418 11 407 0 394 0 c 0
 381 0 371 11 371 24 c 2
 371 59 l 2
 371 72 381 83 394 83 c 0
EndSplineSet
EndChar
StartChar: L
Encoding: 76 76 25
Width: 470
VWidth: 0
Flags: HMW
LayerCount: 2
Fore
SplineSet
75 570 m 0
 98 570 115 552 115 529 c 0
 115 528 115 529 115 528 c 0
 115 527 115 527 115 526 c 0
 115 393 115 261 115 128 c 0
 115 127 115 126 115 125 c 0
 115 124 115 123 115 122 c 0
 115 99 98 81 75 81 c 0
 52 81 34 99 34 122 c 0
 34 123 34 124 34 125 c 0
 34 126 34 127 34 128 c 0
 34 261 34 393 34 526 c 0
 34 527 34 527 34 528 c 0
 34 529 34 528 34 529 c 0
 34 552 52 570 75 570 c 0
115 41 m 0
 115 62 133 81 155 81 c 0
 236 81 316 81 397 81 c 2
 398 81 l 2
 399 81 399 81 400 81 c 0
 423 81 441 64 441 41 c 0
 441 18 423 0 400 0 c 0
 399 0 399 0 398 0 c 2
 397 0 l 2
 316 0 236 0 155 0 c 0
 133 0 115 20 115 41 c 0
EndSplineSet
Validated: 1
EndChar
StartChar: M
Encoding: 77 77 24
Width: 447
VWidth: 0
Flags: HMW
LayerCount: 2
Fore
SplineSet
222.123046875 407.142578125 m 0
 235.012695312 407.142578125 245.388671875 396.766601562 245.388671875 383.876953125 c 2
 245.388671875 348.98046875 l 2
 245.388671875 336.090820312 235.012695312 325.71484375 222.123046875 325.71484375 c 0
 209.233398438 325.71484375 198.857421875 336.090820312 198.857421875 348.98046875 c 2
 198.857421875 383.876953125 l 2
 198.857421875 396.766601562 209.233398438 407.142578125 222.123046875 407.142578125 c 0
384.98046875 471.123046875 m 2
 397.303694255 471.123046875 408.24609375 461.378857794 408.24609375 448.353515625 c 0
 408.24609375 306.657552083 408.24609375 164.961588542 408.24609375 23.265625 c 0
 408.24609375 10.3759765625 397.870117188 0 384.98046875 0 c 0
 372.090820312 0 361.712890625 10.3759765625 361.712890625 23.265625 c 2
 361.712890625 424.591796875 l 1
 286.103515625 424.591796875 l 2
 273.213867188 424.591796875 262.837890625 434.967773438 262.837890625 447.857421875 c 0
 262.837890625 460.747070312 273.213867188 471.123046875 286.103515625 471.123046875 c 2
 384.98046875 471.123046875 l 2
59.265625 570 m 0
 72.1552734375 570 82.53125 559.624023438 82.53125 546.734375 c 0
 82.53125 521.530598958 82.53125 496.326822917 82.53125 471.123046875 c 1
 158.142578125 471.123046875 l 2
 171.032226562 471.123046875 181.408203125 460.747070312 181.408203125 447.857421875 c 0
 181.408203125 434.967773438 171.032226562 424.591796875 158.142578125 424.591796875 c 2
 82.53125 424.591796875 l 1
 82.53125 23.265625 l 2
 82.53125 10.3759765625 72.1552734375 0 59.265625 0 c 0
 46.3759765625 0 36 10.3759765625 36 23.265625 c 2
 36 546.734375 l 2
 36 559.624023438 46.3759765625 570 59.265625 570 c 0
EndSplineSet
EndChar
StartChar: N
Encoding: 78 78 23
Width: 447
VWidth: 0
Flags: HMW
LayerCount: 2
Fore
SplineSet
303.55078125 162.857421875 m 0
 316.440429688 162.857421875 326.818359375 152.481445312 326.818359375 139.591796875 c 2
 326.818359375 104.6953125 l 2
 326.818359375 91.8056640625 316.440429688 81.427734375 303.55078125 81.427734375 c 0
 290.661132812 81.427734375 280.28515625 91.8056640625 280.28515625 104.6953125 c 2
 280.28515625 139.591796875 l 2
 280.28515625 152.481445312 290.661132812 162.857421875 303.55078125 162.857421875 c 0
257.01953125 244.28515625 m 0
 269.909179688 244.28515625 280.28515625 233.909179688 280.28515625 221.01953125 c 2
 280.28515625 186.123046875 l 2
 280.28515625 173.233398438 269.909179688 162.857421875 257.01953125 162.857421875 c 0
 244.129882812 162.857421875 233.751953125 173.233398438 233.751953125 186.123046875 c 2
 233.751953125 221.01953125 l 2
 233.751953125 233.909179688 244.129882812 244.28515625 257.01953125 244.28515625 c 0
187.2265625 325.71484375 m 0
 200.116210938 325.71484375 210.4921875 315.338867188 210.4921875 302.44921875 c 2
 210.4921875 267.552734375 l 2
 210.4921875 254.663085938 200.116210938 244.28515625 187.2265625 244.28515625 c 0
 174.336914062 244.28515625 163.9609375 254.663085938 163.9609375 267.552734375 c 2
 163.9609375 302.44921875 l 2
 163.9609375 315.338867188 174.336914062 325.71484375 187.2265625 325.71484375 c 0
140.693359375 407.142578125 m 0
 153.583007812 407.142578125 163.9609375 396.766601562 163.9609375 383.876953125 c 2
 163.9609375 348.98046875 l 2
 163.9609375 336.090820312 153.583007812 325.71484375 140.693359375 325.71484375 c 0
 127.803710938 325.71484375 117.427734375 336.090820312 117.427734375 348.98046875 c 2
 117.427734375 383.876953125 l 2
 117.427734375 396.766601562 127.803710938 407.142578125 140.693359375 407.142578125 c 0
408.24609375 23.265625 m 0
 408.24609375 11.2146748871 398.645114561 0 385.865234375 0 c 2
 339.25390625 0 l 2
 339.1640625 0 339.077148438 0.01171875 338.98828125 0.013671875 c 0
 338.807617188 0.009765625 338.62890625 0 338.447265625 0 c 0
 325.557617188 0 315.181640625 10.3759765625 315.181640625 23.265625 c 2
 315.181640625 58.162109375 l 2
 315.181640625 71.0517578125 325.557617188 81.427734375 338.447265625 81.427734375 c 0
 338.62890625 81.427734375 338.807617188 81.41796875 338.98828125 81.4140625 c 0
 339.077148438 81.416015625 339.1640625 81.427734375 339.25390625 81.427734375 c 2
 361.712890625 81.427734375 l 1
 361.712890625 465.3046875 l 2
 361.712890625 478.194335938 372.090820312 488.572265625 384.98046875 488.572265625 c 0
 397.870117188 488.572265625 408.24609375 478.194335938 408.24609375 465.3046875 c 0
 408.24609375 317.958333333 408.24609375 170.611979167 408.24609375 23.265625 c 0
129.064453125 430.408203125 m 2
 129.064453125 418.043019598 119.204004966 407.142578125 106.31640625 407.142578125 c 0
 98.3880208333 407.142578125 90.4596354167 407.142578125 82.53125 407.142578125 c 1
 82.53125 23.265625 l 2
 82.53125 10.3759765625 72.1552734375 0 59.265625 0 c 0
 46.3759765625 0 36 10.3759765625 36 23.265625 c 2
 36 546.734375 l 2
 36 559.624023438 46.3759765625 570 59.265625 570 c 0
 72.1552734375 570 82.53125 559.624023438 82.53125 546.734375 c 0
 82.53125 527.347005208 82.53125 507.959635417 82.53125 488.572265625 c 1
 90.4596354167 488.572265625 98.3880208333 488.572265625 106.31640625 488.572265625 c 0
 119.201035425 488.572265625 129.064453125 477.670857665 129.064453125 465.3046875 c 2
 129.064453125 430.408203125 l 2
EndSplineSet
EndChar
StartChar: O
Encoding: 79 79 22
Width: 481
VWidth: 0
Flags: W
HStem: 0 81.4277<116.43 360.715> 488.572 81.4277<116.43 355.815>
VStem: 35 81.4297<81.4277 488.572> 360.715 81.4277<81.4277 483.672>
LayerCount: 2
Fore
SplineSet
75.265625 0 m 2
 52.8371770642 0 35 18.5551206219 35 40.71484375 c 0
 35 41.189453125 35.01953125 41.66015625 35.03515625 42.130859375 c 0
 35.013671875 42.58984375 35 43.05078125 35 43.515625 c 2
 35 522.3828125 l 2
 35 523.446289062 35.0654296875 524.494140625 35.1796875 525.525390625 c 0
 35.0673828125 526.763671875 35 528.016601562 35 529.28515625 c 0
 35 551.840820312 53.1591796875 570 75.71484375 570 c 0
 76.314453125 570 76.91015625 569.98046875 77.50390625 569.955078125 c 0
 77.802734375 569.978515625 78.1015625 570 78.40625 570 c 2
 316.15625 570 l 2
 316.604492188 570 317.044921875 569.966796875 317.478515625 569.916015625 c 0
 318.313476562 569.966796875 319.15234375 570 320 570 c 0
 342.555664062 570 360.71484375 551.840820312 360.71484375 529.28515625 c 0
 360.71484375 506.729492188 342.555664062 488.572265625 320 488.572265625 c 0
 319.15234375 488.572265625 318.313476562 488.60546875 317.478515625 488.65625 c 0
 317.044921875 488.60546875 316.604492188 488.572265625 316.15625 488.572265625 c 2
 116.4296875 488.572265625 l 1
 116.4296875 81.427734375 l 1
 360.71484375 81.427734375 l 1
 360.71484375 202.208984375 360.71484375 322.990234375 360.71484375 443.771484375 c 0
 360.71484375 444.392578125 360.739257812 445.005859375 360.77734375 445.6171875 c 0
 360.737304688 446.359375 360.71484375 447.10546875 360.71484375 447.857421875 c 0
 360.71484375 470.413085938 378.874023438 488.572265625 401.4296875 488.572265625 c 0
 423.985351562 488.572265625 442.142578125 470.413085938 442.142578125 447.857421875 c 0
 442.142578125 447.10546875 442.120117188 446.359375 442.080078125 445.6171875 c 0
 442.118164062 445.005859375 442.142578125 444.392578125 442.142578125 443.771484375 c 0
 442.142578125 309.296223958 442.142578125 174.820963542 442.142578125 40.345703125 c 0
 442.142578125 17.3209588488 423.349522421 0 401.4296875 0 c 0
 400.833984375 0 400.243164062 0.01953125 399.654296875 0.044921875 c 0
 399.357421875 0.021484375 399.05859375 0 398.755859375 0 c 2
 75.265625 0 l 2
EndSplineSet
Validated: 524289
EndChar
StartChar: P
Encoding: 80 80 21
Width: 479
VWidth: 0
Flags: W
HStem: 0 21G<45.0332 110.396> 244.285 81.4297<118.43 362.715> 488.572 81.4277<118.43 362.715>
VStem: 37.127 81.1758<0 244.285 325.715 488.572> 362.715 81.4277<325.715 488.572>
LayerCount: 2
Fore
SplineSet
444.142578125 255.3984375 m 0
 444.142578125 249.06640625 439.140625 244.28515625 433.03125 244.28515625 c 2
 118.4296875 244.28515625 l 1
 118.4296875 77.78125 l 2
 118.4296875 75.8017578125 118.377929688 73.84765625 118.302734375 71.90625 c 0
 118.376953125 71.38671875 118.4296875 70.857421875 118.4296875 70.31640625 c 2
 118.4296875 11.111328125 l 2
 118.4296875 4.955078125 113.474609375 0 107.318359375 0 c 2
 48.111328125 0 l 2
 41.955078125 0 37 4.955078125 37 11.111328125 c 2
 37 70.31640625 l 2
 37 70.859375 37.052734375 71.390625 37.126953125 71.912109375 c 0
 37.0517578125 73.8515625 37 75.8037109375 37 77.78125 c 2
 37 492.21875 l 2
 37 494.197265625 37.0517578125 496.149414062 37.126953125 498.08984375 c 0
 37.052734375 498.611328125 37 499.140625 37 499.68359375 c 2
 37 558.888671875 l 2
 37 565.044921875 41.955078125 570 48.111328125 570 c 0
 149.275390625 570 250.439453125 570 351.603515625 570 c 0
 357.759765625 570 362.71484375 565.044921875 362.71484375 558.888671875 c 2
 362.71484375 499.68359375 l 2
 362.71484375 493.52734375 357.759765625 488.572265625 351.603515625 488.572265625 c 2
 118.4296875 488.572265625 l 1
 118.4296875 325.71484375 l 1
 362.71484375 325.71484375 l 1
 362.71484375 376.295898438 362.71484375 426.877929688 362.71484375 477.458984375 c 0
 362.71484375 483.615234375 367.669921875 488.572265625 373.826171875 488.572265625 c 2
 433.03125 488.572265625 l 2
 439.1875 488.572265625 444.142578125 483.615234375 444.142578125 477.458984375 c 0
 444.142578125 403.438476562 444.142578125 329.418945312 444.142578125 255.3984375 c 0
EndSplineSet
Validated: 524289
EndChar
StartChar: Q
Encoding: 81 81 20
Width: 548
VWidth: 0
Flags: HMW
LayerCount: 2
Fore
SplineSet
35 529 m 0
 35 548 51 570 72 570 c 0
 153 570 235 570 316 570 c 2
 317 570 l 2
 318 570 319 570 320 570 c 0
 343 570 361 552 361 529 c 0
 361 506 343 489 320 489 c 0
 319 489 318 489 317 489 c 2
 316 489 l 2
 249 489 183 489 116 489 c 1
 116 81 l 1
 361 81 l 1
 361 202 361 323 361 444 c 0
 361 445 361 445 361 446 c 0
 361 447 361 447 361 448 c 0
 361 471 378 489 401 489 c 0
 424 489 442 471 442 448 c 0
 442 447 442 447 442 446 c 0
 442 445 442 445 442 444 c 0
 442 323 442 202 442 81 c 1
 483 81 l 2
 506 81 524 64 524 41 c 0
 524 18 506 0 483 0 c 0
 347 0 209 0 73 0 c 0
 51 0 35 21 35 41 c 0
 35 42 35 42 35 43 c 0
 35 44 35 45 35 46 c 2
 35 519 l 2
 35 521 35 522 35 524 c 0
 35 526 35 527 35 529 c 0
EndSplineSet
Validated: 1
EndChar
StartChar: R
Encoding: 82 82 17
Width: 477
VWidth: 0
Flags: HMW
LayerCount: 2
Fore
SplineSet
239 162 m 0
 220 162 198 178 198 199 c 2
 198 244 l 1
 116 244 l 1
 116 178 116 111 116 45 c 0
 116 44 116 44 116 43 c 0
 116 42 116 42 116 41 c 0
 116 18 99 0 76 0 c 0
 53 0 35 18 35 41 c 0
 35 42 35 42 35 43 c 0
 35 44 35 44 35 45 c 2
 35 527 l 1
 35 528 l 2
 35 529 35 528 35 529 c 0
 35 552 53 570 76 570 c 0
 77 570 77 570 78 570 c 2
 79 570 l 2
 158 570 237 570 316 570 c 2
 317 570 l 2
 318 570 319 570 320 570 c 0
 343 570 360 552 360 529 c 0
 360 506 343 488 320 488 c 0
 319 488 318 489 317 489 c 2
 316 488 l 1
 249 488 183 488 116 488 c 1
 116 325 l 1
 197 325 279 325 360 325 c 1
 360 445 l 1
 361 447 l 1
 360 448 l 1
 360 471 378 488 401 488 c 0
 424 488 442 471 442 448 c 2
 442 447 l 1
 442 445 l 1
 442 288 l 1
 442 286 l 1
 442 285 l 2
 442 262 424 244 401 244 c 2
 279 244 l 1
 279 199 l 2
 279 178 258 162 239 162 c 0
290 162 m 2
 350 162 l 2
 356 162 360 158 360 152 c 2
 360 93 l 2
 360 87 356 81 350 81 c 2
 290 81 l 2
 284 81 279 87 279 93 c 2
 279 152 l 2
 279 158 284 162 290 162 c 2
401 81 m 0
 424 81 442 64 442 41 c 0
 442 18 424 0 401 0 c 0
 378 0 360 18 360 41 c 0
 360 64 378 81 401 81 c 0
EndSplineSet
Validated: 1
EndChar
StartChar: S
Encoding: 83 83 16
Width: 476
VWidth: 0
Flags: HMW
LayerCount: 2
Fore
SplineSet
154 570 m 0
 155 570 156 570 157 570 c 0
 158 570 158 570 159 570 c 0
 238 570 316 570 395 570 c 2
 396 570 l 2
 397 570 397 570 398 570 c 0
 421 570 439 552 439 529 c 0
 439 506 421 488 398 488 c 0
 397 488 397 489 396 489 c 2
 395 488 l 1
 316 488 238 488 159 488 c 0
 158 488 158 489 157 489 c 0
 156 489 155 488 154 488 c 0
 131 488 113 506 113 529 c 0
 113 552 131 570 154 570 c 0
32 41 m 0
 32 63 50 81 72 81 c 2
 358 81 l 1
 358 135 358 190 358 244 c 1
 75 244 l 1
 74 244 l 1
 73 244 l 2
 50 244 32 262 32 285 c 2
 32 286 l 1
 32 287 l 1
 32 446 l 1
 32 447 l 1
 32 448 l 2
 32 471 50 488 73 488 c 0
 96 488 113 471 113 448 c 2
 113 447 l 1
 113 446 l 1
 113 325 l 1
 398 325 l 2
 421 325 439 308 439 285 c 0
 439 284 439 283 439 282 c 0
 439 281 439 281 439 280 c 0
 439 201 439 123 439 44 c 0
 439 43 439 43 439 42 c 2
 439 41 l 2
 439 21 423 0 401 0 c 2
 72 0 l 2
 50 0 32 19 32 41 c 0
EndSplineSet
Validated: 1
EndChar
StartChar: T
Encoding: 84 84 15
Width: 370
VWidth: 0
Flags: HMW
LayerCount: 2
Fore
SplineSet
44.265625 552.552734375 m 0
 137.326171875 552.552734375 230.38671875 552.552734375 323.447265625 552.552734375 c 0
 336.336914062 552.552734375 346.712890625 542.174804688 346.712890625 529.28515625 c 0
 346.712890625 516.395507812 336.336914062 506.01953125 323.447265625 506.01953125 c 0
 271.100911458 506.01953125 218.754557292 506.01953125 166.408203125 506.01953125 c 1
 166.408203125 345.1015625 166.408203125 184.18359375 166.408203125 23.265625 c 0
 166.408203125 10.3759765625 156.032226562 0 143.142578125 0 c 0
 130.252929688 0 119.876953125 10.3759765625 119.876953125 23.265625 c 0
 119.876953125 184.18359375 119.876953125 345.1015625 119.876953125 506.01953125 c 1
 94.6731770833 506.01953125 69.4694010417 506.01953125 44.265625 506.01953125 c 0
 31.3759765625 506.01953125 21 516.395507812 21 529.28515625 c 0
 21 542.174804688 31.3759765625 552.552734375 44.265625 552.552734375 c 0
EndSplineSet
EndChar
StartChar: U
Encoding: 85 85 14
Width: 456
VWidth: 0
Flags: HMW
LayerCount: 2
Fore
SplineSet
59 584 m 0
 72 584 84 573 84 560 c 0
 84 481 84 402 84 323 c 2
 84 108 l 2
 84 95 72 83 59 83 c 0
 46 83 36 95 36 108 c 2
 36 323 l 2
 36 402 36 481 36 560 c 0
 36 573 46 584 59 584 c 0
393 584 m 0
 406 584 417 573 417 560 c 2
 417 524 l 1
 417 522 l 2
 417 363 417 203 417 44 c 2
 417 43 l 1
 417 42 l 2
 417 29 406 17 393 17 c 2
 392 17 l 2
 303 17 214 17 125 17 c 0
 112 17 101 29 101 42 c 0
 101 55 112 66 125 66 c 0
 206 66 289 66 370 66 c 1
 370 219 370 369 370 522 c 2
 370 524 l 1
 370 560 l 2
 370 573 380 584 393 584 c 0
EndSplineSet
EndChar
StartChar: V
Encoding: 86 86 13
Width: 472
VWidth: 0
Flags: W
HStem: 0 81.4277<193.857 275.287> 81.4277 162.857<112.43 193.857 275.287 356.715> 550 20G<39.0332 104.396>
VStem: 31 81.4297<244.285 570> 112.43 81.4277<81.4277 244.285> 193.857 81.4297<0 81.4277> 275.287 81.4277<81.4277 244.285> 356.715 81.4277<244.285 488.572>
LayerCount: 2
Fore
SplineSet
42.111328125 570 m 2x70
 101.318359375 570 l 2
 107.474609375 570 112.4296875 565.044921875 112.4296875 558.888671875 c 2
 112.4296875 255.3984375 l 2
 112.4296875 249.2421875 107.474609375 244.28515625 101.318359375 244.28515625 c 2
 42.111328125 244.28515625 l 2
 35.955078125 244.28515625 31 249.2421875 31 255.3984375 c 2
 31 558.888671875 l 2
 31 565.044921875 35.955078125 570 42.111328125 570 c 2x70
367.826171875 488.572265625 m 2
 427.03125 488.572265625 l 2
 433.1875 488.572265625 438.142578125 483.615234375 438.142578125 477.458984375 c 2
 438.142578125 255.3984375 l 2
 438.142578125 249.2421875 433.1875 244.28515625 427.03125 244.28515625 c 2
 367.826171875 244.28515625 l 2
 361.669921875 244.28515625 356.71484375 249.2421875 356.71484375 255.3984375 c 2
 356.71484375 477.458984375 l 2x61
 356.71484375 483.615234375 361.669921875 488.572265625 367.826171875 488.572265625 c 2
123.541015625 244.28515625 m 2
 182.74609375 244.28515625 l 2
 188.90234375 244.28515625 193.857421875 239.330078125 193.857421875 233.173828125 c 2
 193.857421875 92.541015625 l 2
 193.857421875 86.384765625 188.90234375 81.427734375 182.74609375 81.427734375 c 2
 123.541015625 81.427734375 l 2
 117.384765625 81.427734375 112.4296875 86.384765625 112.4296875 92.541015625 c 2
 112.4296875 233.173828125 l 2x68
 112.4296875 239.330078125 117.384765625 244.28515625 123.541015625 244.28515625 c 2
286.3984375 244.28515625 m 2
 345.603515625 244.28515625 l 2
 351.759765625 244.28515625 356.71484375 239.330078125 356.71484375 233.173828125 c 2
 356.71484375 92.541015625 l 2
 356.71484375 86.384765625 351.759765625 81.427734375 345.603515625 81.427734375 c 2
 286.3984375 81.427734375 l 2
 280.2421875 81.427734375 275.287109375 86.384765625 275.287109375 92.541015625 c 2
 275.287109375 233.173828125 l 2x62
 275.287109375 239.330078125 280.2421875 244.28515625 286.3984375 244.28515625 c 2
204.96875 81.427734375 m 2xa4
 264.173828125 81.427734375 l 2
 270.330078125 81.427734375 275.287109375 76.47265625 275.287109375 70.31640625 c 2
 275.287109375 11.111328125 l 2
 275.287109375 4.955078125 270.330078125 0 264.173828125 0 c 2
 204.96875 0 l 2
 198.8125 0 193.857421875 4.955078125 193.857421875 11.111328125 c 2
 193.857421875 70.31640625 l 2
 193.857421875 76.47265625 198.8125 81.427734375 204.96875 81.427734375 c 2xa4
EndSplineSet
Validated: 1
EndChar
StartChar: W
Encoding: 87 87 12
Width: 455
VWidth: 0
Flags: HMW
LayerCount: 2
Fore
SplineSet
59 17 m 2
 47 17 36 28 36 41 c 2
 36 560 l 2
 36 573 46 584 59 584 c 0
 72 584 84 573 84 560 c 0
 84 395 84 231 84 66 c 1
 161 66 l 2
 174 66 184 55 184 42 c 0
 184 29 174 17 161 17 c 2
 60 17 l 1
 59 17 l 2
393 584 m 0
 406 584 417 573 417 560 c 2
 417 524 l 1
 417 522 l 1
 417 521 l 1
 417 108 l 2
 417 95 406 83 393 83 c 0
 380 83 370 95 370 108 c 2
 370 521 l 1
 370 522 l 1
 370 524 l 1
 370 560 l 2
 370 573 380 584 393 584 c 0
226 167 m 0
 239 167 250 156 250 143 c 2
 250 108 l 2
 250 95 239 83 226 83 c 0
 213 83 203 95 203 108 c 2
 203 143 l 2
 203 156 213 167 226 167 c 0
292 66 m 2
 328 66 l 2
 341 66 351 55 351 42 c 0
 351 29 341 17 328 17 c 2
 292 17 l 2
 279 17 268 29 268 42 c 0
 268 55 279 66 292 66 c 2
EndSplineSet
EndChar
StartChar: X
Encoding: 88 88 11
Width: 454
VWidth: 0
Flags: HMW
LayerCount: 2
Fore
SplineSet
59 584 m 0
 72 584 84 573 84 560 c 2
 84 524 l 1
 83 522 l 1
 84 521 l 1
 84 399 l 1
 143 399 l 2
 156 399 167 388 167 375 c 0
 167 362 156 351 143 351 c 2
 59 351 l 2
 46 351 36 362 36 375 c 2
 36 377 l 1
 36 378 l 1
 36 521 l 1
 36 522 l 1
 36 524 l 1
 36 560 l 2
 36 573 46 584 59 584 c 0
393 584 m 0
 406 584 417 573 417 560 c 0
 417 520 417 480 417 440 c 0
 417 427 406 417 393 417 c 0
 380 417 370 427 370 440 c 0
 370 480 370 520 370 560 c 0
 370 573 380 584 393 584 c 0
310 399 m 2
 345 399 l 2
 358 399 370 388 370 375 c 0
 370 362 358 351 345 351 c 2
 310 351 l 2
 297 351 286 362 286 375 c 0
 286 388 297 399 310 399 c 2
179 364 m 0
 192 364 203 353 203 340 c 0
 203 327 192 315 179 315 c 0
 166 315 155 327 155 340 c 0
 155 353 166 364 179 364 c 0
274 364 m 0
 287 364 298 353 298 340 c 0
 298 327 287 315 274 315 c 0
 261 315 250 327 250 340 c 0
 250 353 261 364 274 364 c 0
226 315 m 0
 239 315 250 305 250 292 c 0
 250 279 239 268 226 268 c 0
 213 268 203 279 203 292 c 0
 203 305 213 315 226 315 c 0
179 268 m 0
 192 268 203 257 203 244 c 0
 203 231 192 220 179 220 c 0
 166 220 155 231 155 244 c 0
 155 257 166 268 179 268 c 0
274 268 m 0
 287 268 298 257 298 244 c 0
 298 231 287 220 274 220 c 0
 261 220 250 231 250 244 c 0
 250 257 261 268 274 268 c 0
59 232 m 2
 60 232 l 1
 143 232 l 2
 156 232 167 222 167 209 c 0
 167 196 156 184 143 184 c 2
 84 184 l 1
 84 131 84 77 84 24 c 0
 84 11 72 0 59 0 c 0
 46 0 36 11 36 24 c 0
 36 85 36 147 36 208 c 2
 36 209 l 2
 36 222 46 232 59 232 c 2
393 232 m 2
 405 232 417 223 417 210 c 0
 417 149 417 85 417 24 c 0
 417 11 406 0 393 0 c 0
 380 0 370 11 370 24 c 2
 370 184 l 1
 310 184 l 2
 297 184 286 196 286 209 c 0
 286 222 297 232 310 232 c 2
 393 232 l 2
EndSplineSet
EndChar
StartChar: Y
Encoding: 89 89 10
Width: 460
VWidth: 0
Flags: HMW
LayerCount: 2
Fore
SplineSet
67 570 m 0
 90 570 107 552 107 529 c 0
 107 528 107 528 107 527 c 0
 107 526 107 527 107 526 c 2
 107 407 l 1
 147 407 l 1
 148 407 l 2
 171 407 189 389 189 366 c 0
 189 343 171 326 148 326 c 2
 147 326 l 1
 68 326 l 1
 67 326 l 2
 44 326 26 343 26 366 c 0
 26 367 26 367 26 368 c 0
 26 369 26 369 26 370 c 2
 26 526 l 2
 26 527 26 526 26 527 c 0
 26 528 26 528 26 529 c 0
 26 552 44 570 67 570 c 0
392 570 m 0
 415 570 433 552 433 529 c 2
 433 451 l 1
 433 450 l 2
 433 449 433 449 433 448 c 0
 433 425 415 407 392 407 c 0
 369 407 351 425 351 448 c 0
 351 449 352 449 352 450 c 2
 351 451 l 1
 351 529 l 2
 351 552 369 570 392 570 c 0
311 407 m 0
 334 407 351 389 351 366 c 0
 351 343 334 326 311 326 c 0
 288 326 270 343 270 366 c 0
 270 389 288 407 311 407 c 0
230 326 m 0
 253 326 270 308 270 285 c 0
 270 284 270 283 270 282 c 0
 270 281 270 280 270 279 c 2
 270 46 l 2
 270 45 270 44 270 43 c 0
 270 42 270 42 270 41 c 0
 270 18 253 0 230 0 c 0
 207 0 189 18 189 41 c 0
 189 42 189 42 189 43 c 0
 189 44 189 45 189 46 c 0
 189 124 189 201 189 279 c 0
 189 280 189 281 189 282 c 0
 189 283 189 284 189 285 c 0
 189 308 207 326 230 326 c 0
EndSplineSet
Validated: 1
EndChar
StartChar: Z
Encoding: 90 90 9
Width: 476
VWidth: 0
Flags: HMW
LayerCount: 2
Fore
SplineSet
75 570 m 2
 76 570 l 2
 157 570 237 570 318 570 c 2
 319 570 l 2
 342 570 360 552 360 529 c 0
 360 506 342 488 319 488 c 1
 318 489 l 1
 318 488 l 1
 237 488 157 488 76 488 c 1
 76 489 l 1
 75 488 l 1
 52 488 34 506 34 529 c 0
 34 552 52 570 75 570 c 2
34 285 m 0
 34 306 51 325 73 325 c 2
 360 325 l 1
 360 446 l 1
 360 447 l 1
 360 448 l 2
 360 471 377 488 400 488 c 0
 423 488 441 471 441 448 c 2
 441 447 l 1
 441 446 l 1
 441 287 l 1
 441 286 l 1
 441 285 l 2
 441 262 423 244 400 244 c 2
 399 244 l 1
 115 244 l 1
 115 190 115 135 115 81 c 1
 399 81 l 1
 400 81 l 2
 423 81 441 64 441 41 c 0
 441 18 423 0 400 0 c 2
 399 0 l 1
 75 0 l 2
 52 0 34 18 34 41 c 0
 34 42 34 42 34 43 c 0
 34 44 34 43 34 44 c 0
 34 122 34 200 34 278 c 0
 34 279 34 280 34 281 c 0
 34 282 34 284 34 285 c 0
EndSplineSet
Validated: 1
EndChar
StartChar: bracketleft
Encoding: 91 91 84
Width: 317
VWidth: 0
Flags: HMW
LayerCount: 2
Fore
SplineSet
37 542 m 2
 37 561 53 584 75 584 c 0
 133 584 191 584 249 584 c 0
 271 584 287 561 287 542 c 0
 287 523 271 501 249 501 c 0
 206 501 163 501 120 501 c 1
 120 362 120 222 120 83 c 1
 246 83 l 2
 270 83 287 66 287 42 c 0
 287 18 270 0 246 0 c 2
 79 0 l 2
 55 0 37 18 37 42 c 0
 37 45 38 47 38 49 c 0
 38 51 37 53 37 55 c 2
 37 542 l 2
EndSplineSet
EndChar
StartChar: backslash
Encoding: 92 92 85
Width: 303
VWidth: 0
Flags: HMW
LayerCount: 2
Fore
SplineSet
69 570 m 0
 92 570 109 552 109 529 c 2
 109 453 l 2
 109 452 109 452 109 451 c 0
 109 450 109 449 109 448 c 0
 109 425 92 407 69 407 c 0
 46 407 28 425 28 448 c 0
 28 449 28 450 28 451 c 0
 28 452 28 452 28 453 c 2
 28 529 l 2
 28 552 46 570 69 570 c 0
150 244 m 0
 129 244 109 261 109 283 c 2
 109 359 l 2
 109 360 110 361 110 362 c 0
 110 363 109 364 109 366 c 0
 109 389 127 407 150 407 c 0
 173 407 191 389 191 366 c 0
 191 364 191 363 191 362 c 0
 191 361 191 360 191 359 c 2
 191 283 l 2
 191 261 171 244 150 244 c 0
232 244 m 0
 255 244 272 227 272 204 c 0
 272 203 272 202 272 201 c 0
 272 200 272 200 272 199 c 2
 272 45 l 2
 272 44 272 44 272 43 c 0
 272 42 272 42 272 41 c 0
 272 18 255 0 232 0 c 0
 209 0 191 18 191 41 c 0
 191 42 191 42 191 43 c 0
 191 44 191 44 191 45 c 2
 191 199 l 2
 191 200 191 200 191 201 c 0
 191 202 191 203 191 204 c 0
 191 227 209 244 232 244 c 0
EndSplineSet
Validated: 1
EndChar
StartChar: bracketright
Encoding: 93 93 86
Width: 310
VWidth: 0
Flags: W
HStem: 0 81.4277<32.8996 190.857> 488.572 81.4277<32.8996 190.857>
VStem: 28 244.285<4.90007 76.5281 493.472 565.1> 190.873 81.3965<81.4277 488.572>
LayerCount: 2
Fore
SplineSet
272.28515625 37.30078125 m 2xe0
 272.28515625 15.6241705856 251.052176428 0 231.5703125 0 c 0
 231.483398438 0 231.3984375 0.0048828125 231.3125 0.005859375 c 0
 231.26953125 0.005859375 231.227539062 0 231.18359375 0 c 2
 69.1015625 0 l 2
 69.0576171875 0 69.0146484375 0.005859375 68.970703125 0.005859375 c 0
 68.884765625 0.0048828125 68.7998046875 0 68.712890625 0 c 0
 46.1572265625 0 28 18.1591796875 28 40.71484375 c 0xe0
 28 63.2705078125 46.1572265625 81.427734375 68.712890625 81.427734375 c 0
 68.7998046875 81.427734375 68.884765625 81.4228515625 68.970703125 81.421875 c 0
 69.0146484375 81.4228515625 69.0576171875 81.427734375 69.1015625 81.427734375 c 2
 190.857421875 81.427734375 l 1
 190.857421875 143.015625 l 2
 190.857421875 143.216796875 190.8671875 143.416015625 190.873046875 143.615234375 c 0xd0
 190.8671875 143.823242188 190.857421875 144.030273438 190.857421875 144.240234375 c 0
 190.857421875 259.017578125 190.857421875 373.794921875 190.857421875 488.572265625 c 1
 69.1015625 488.572265625 l 2
 69.0576171875 488.572265625 69.0146484375 488.577148438 68.970703125 488.578125 c 0
 68.884765625 488.577148438 68.7998046875 488.572265625 68.712890625 488.572265625 c 0
 46.1572265625 488.572265625 28 506.729492188 28 529.28515625 c 0
 28 551.840820312 46.1572265625 570 68.712890625 570 c 0
 68.7998046875 570 68.884765625 569.995117188 68.970703125 569.994140625 c 0
 69.0146484375 569.995117188 69.0576171875 570 69.1015625 570 c 2
 231.18359375 570 l 2
 231.227539062 570 231.26953125 569.995117188 231.3125 569.994140625 c 0
 231.3984375 569.995117188 231.483398438 570 231.5703125 570 c 0
 254.125976562 570 272.28515625 551.840820312 272.28515625 529.28515625 c 0
 272.28515625 528.129882812 272.2265625 526.990234375 272.1328125 525.859375 c 0
 272.223632812 525.11328125 272.28515625 524.359375 272.28515625 523.587890625 c 0
 272.28515625 397.138671875 272.28515625 270.689453125 272.28515625 144.240234375 c 0xe0
 272.28515625 144.038085938 272.274414062 143.837890625 272.26953125 143.63671875 c 0xd0
 272.275390625 143.430664062 272.28515625 143.223632812 272.28515625 143.015625 c 2
 272.28515625 37.30078125 l 2xe0
EndSplineSet
Validated: 524289
EndChar
StartChar: asciicircum
Encoding: 94 94 87
Width: 480
VWidth: 0
Flags: HMW
LayerCount: 2
Fore
SplineSet
240 667 m 0
 264 667 281 650 281 626 c 0
 281 602 264 584 240 584 c 0
 216 584 198 602 198 626 c 0
 198 650 216 667 240 667 c 0
126 584 m 2
 186 584 l 2
 192 584 198 578 198 572 c 2
 198 512 l 2
 198 506 192 500 186 500 c 2
 126 500 l 2
 120 500 114 506 114 512 c 2
 114 572 l 2
 114 578 120 584 126 584 c 2
292 584 m 2
 353 584 l 2
 359 584 364 578 364 572 c 2
 364 512 l 2
 364 506 359 500 353 500 c 2
 292 500 l 2
 286 500 281 506 281 512 c 2
 281 572 l 2
 281 578 286 584 292 584 c 2
73 500 m 0
 97 500 114 483 114 459 c 0
 114 435 97 417 73 417 c 0
 49 417 31 435 31 459 c 0
 31 483 49 500 73 500 c 0
406 500 m 0
 430 500 447 483 447 459 c 0
 447 435 430 417 406 417 c 0
 382 417 364 435 364 459 c 0
 364 483 382 500 406 500 c 0
EndSplineSet
EndChar
StartChar: underscore
Encoding: 95 95 90
Width: 488
VWidth: 0
Flags: HMW
LayerCount: 2
Fore
SplineSet
77 83 m 2
 410 83 l 2
 434 83 452 66 452 42 c 0
 452 18 434 0 410 0 c 2
 77 0 l 2
 53 0 35 18 35 42 c 0
 35 66 53 83 77 83 c 2
EndSplineSet
EndChar
StartChar: grave
Encoding: 96 96 88
Width: 227
VWidth: 0
Flags: HMW
LayerCount: 2
Fore
SplineSet
68 667 m 0
 92 667 109 650 109 626 c 0
 109 602 92 584 68 584 c 0
 44 584 26 602 26 626 c 0
 26 650 44 667 68 667 c 0
151 584 m 0
 175 584 193 566 193 542 c 0
 193 518 175 501 151 501 c 0
 127 501 109 518 109 542 c 0
 109 566 127 584 151 584 c 0
EndSplineSet
EndChar
StartChar: a
Encoding: 97 97 51
Width: 305
VWidth: 0
Flags: HMW
LayerCount: 2
Fore
SplineSet
81 140 m 1
 81 109 81 78 81 47 c 1
 220 47 l 1
 220 82 l 2
 220 83 221 85 221 86 c 0
 221 88 220 91 220 94 c 2
 220 140 l 1
 81 140 l 1
243 279 m 0
 256 279 267 269 267 256 c 0
 267 255 266 254 266 253 c 0
 266 252 267 251 267 250 c 2
 267 94 l 2
 267 91 266 88 266 86 c 0
 266 85 267 83 267 82 c 2
 267 23 l 2
 267 10 256 0 243 0 c 0
 181 -0 119 0 57 0 c 0
 44 0 34 10 34 23 c 2
 34 163 l 2
 34 176 44 187 57 187 c 0
 58 187 59 186 60 186 c 2
 61 187 l 1
 220 187 l 1
 220 256 l 2
 220 269 230 279 243 279 c 0
34 302 m 0
 34 314 44 326 56 326 c 2
 197 326 l 2
 210 326 220 315 220 302 c 0
 220 289 210 279 197 279 c 0
 150 279 103 279 56 279 c 0
 44 279 34 290 34 302 c 0
EndSplineSet
EndChar
StartChar: b
Encoding: 98 98 50
Width: 304
VWidth: 0
Flags: HMW
LayerCount: 2
Fore
SplineSet
57 0 m 2
 45 0 35 11 35 23 c 0
 35 24 35 25 35 26 c 0
 35 27 35 28 35 29 c 2
 35 533 l 1
 35 534 l 1
 35 535 l 2
 35 548 45 558 58 558 c 0
 71 558 82 548 82 535 c 1
 81 534 l 1
 82 533 l 1
 82 326 l 1
 198 326 l 2
 211 326 221 315 221 302 c 0
 221 289 211 279 198 279 c 2
 82 279 l 1
 82 47 l 1
 221 47 l 1
 221 82 l 2
 221 83 221 84 221 85 c 0
 221 86 221 87 221 89 c 2
 221 253 l 1
 221 254 l 2
 221 255 221 255 221 256 c 0
 221 269 231 279 244 279 c 0
 257 279 268 269 268 256 c 0
 268 255 268 255 268 254 c 2
 268 253 l 1
 268 89 l 2
 268 87 267 86 267 85 c 0
 267 84 268 83 268 82 c 2
 268 24 l 1
 268 23 l 2
 268 11 258 0 245 0 c 2
 57 0 l 2
EndSplineSet
Validated: 1
EndChar
StartChar: c
Encoding: 99 99 49
Width: 299
VWidth: 0
Flags: HMW
LayerCount: 2
Fore
SplineSet
81 302 m 0
 81 314 90 326 103 326 c 2
 243 326 l 2
 256 326 267 315 267 302 c 0
 267 289 256 279 243 279 c 2
 103 279 l 2
 90 279 81 290 81 302 c 0
53 0 m 2
 42 0 34 13 34 23 c 0
 34 24 34 24 34 25 c 2
 34 27 l 2
 34 102 34 176 34 251 c 0
 34 252 34 252 34 253 c 0
 34 254 34 255 34 256 c 0
 34 269 44 279 57 279 c 0
 70 279 81 269 81 256 c 0
 81 255 80 254 80 253 c 0
 80 252 81 252 81 251 c 0
 81 183 81 115 81 47 c 1
 242 47 l 1
 243 47 l 2
 256 47 267 36 267 23 c 0
 267 10 256 0 243 0 c 2
 242 0 l 1
 53 0 l 2
EndSplineSet
Validated: 1
EndChar
StartChar: d
Encoding: 100 100 48
Width: 312
VWidth: 0
Flags: HMW
LayerCount: 2
Fore
SplineSet
82 309 m 0
 82 321 91 334 104 334 c 0
 144 334 184 334 224 334 c 1
 224 406 224 476 224 548 c 0
 224 561 235 571 248 571 c 0
 261 571 272 561 272 548 c 0
 272 373 272 199 272 24 c 0
 272 11 261 0 248 0 c 2
 56 0 l 2
 43 0 34 12 34 24 c 2
 34 262 l 2
 34 275 44 286 57 286 c 0
 70 286 82 275 82 262 c 0
 82 261 81 261 81 260 c 2
 82 259 l 1
 82 222 82 187 82 150 c 1
 81 148 l 1
 82 147 l 1
 82 91 l 2
 82 90 81 89 81 88 c 0
 81 87 82 86 82 85 c 2
 82 48 l 1
 224 48 l 1
 224 128 224 206 224 286 c 1
 184 286 144 286 104 286 c 0
 91 286 82 297 82 309 c 0
EndSplineSet
EndChar
StartChar: e
Encoding: 101 101 47
Width: 309
VWidth: 0
Flags: HMW
LayerCount: 2
Fore
SplineSet
226 167 m 0
 226 155 217 143 204 143 c 0
 164 143 124 143 84 143 c 1
 84 48 l 1
 139 48 195 48 250 48 c 0
 263 48 274 37 274 24 c 0
 274 11 263 0 250 0 c 0
 187 0 122 0 59 0 c 0
 46 0 36 11 36 24 c 2
 36 309 l 2
 36 322 46 334 59 334 c 2
 203 334 l 2
 216 334 226 322 226 309 c 0
 226 296 216 286 203 286 c 0
 163 286 124 286 84 286 c 1
 84 191 l 1
 124 191 164 191 204 191 c 0
 217 191 226 179 226 167 c 0
250 286 m 0
 263 286 274 275 274 262 c 2
 274 214 l 2
 274 201 263 191 250 191 c 0
 237 191 226 201 226 214 c 0
 226 230 226 246 226 262 c 0
 226 275 237 286 250 286 c 0
EndSplineSet
EndChar
StartChar: f
Encoding: 102 102 46
Width: 288
VWidth: 0
Flags: HMW
LayerCount: 2
Fore
SplineSet
94 524 m 0
 107 524 119 514 119 501 c 0
 119 500 118 500 118 499 c 2
 119 497 l 1
 119 439 l 2
 119 438 118 437 118 436 c 0
 118 435 119 434 119 433 c 2
 119 334 l 1
 237 334 l 2
 250 334 261 322 261 309 c 0
 261 296 250 286 237 286 c 2
 119 286 l 1
 119 86 l 1
 118 85 l 1
 119 84 l 1
 119 26 l 1
 118 25 l 1
 119 24 l 1
 119 11 107 0 94 0 c 0
 81 0 71 11 71 24 c 0
 71 111 71 199 71 286 c 1
 63 286 54 286 46 286 c 0
 33 286 23 296 23 309 c 0
 23 322 33 334 46 334 c 0
 54 334 63 334 71 334 c 1
 71 501 l 2
 71 514 81 524 94 524 c 0
141 572 m 1
 142 571 l 1
 142 572 l 1
 237 572 l 2
 250 572 261 561 261 548 c 0
 261 535 250 524 237 524 c 0
 205 524 173 524 141 524 c 0
 128 524 119 535 119 548 c 0
 119 561 128 572 141 572 c 1
EndSplineSet
EndChar
StartChar: g
Encoding: 103 103 45
Width: 313
VWidth: 0
Flags: HMW
LayerCount: 2
Fore
SplineSet
83 309 m 0
 83 321 92 334 104 334 c 2
 249 334 l 2
 262 334 273 322 273 309 c 0
 273 308 272 307 272 306 c 0
 272 305 273 305 273 304 c 0
 273 165 273 24 273 -115 c 0
 273 -116 272 -115 272 -116 c 0
 272 -117 273 -118 273 -119 c 0
 273 -132 262 -143 249 -143 c 2
 58 -143 l 2
 45 -143 35 -132 35 -119 c 0
 35 -106 45 -95 58 -95 c 2
 225 -95 l 1
 225 -63 225 -32 225 0 c 1
 58 0 l 2
 45 0 35 11 35 24 c 2
 35 262 l 2
 35 275 45 286 58 286 c 0
 71 286 83 275 83 262 c 0
 83 261 82 261 82 260 c 0
 82 259 83 259 83 258 c 0
 83 187 83 119 83 48 c 1
 225 48 l 1
 225 286 l 1
 185 286 144 286 104 286 c 0
 92 286 83 297 83 309 c 0
EndSplineSet
EndChar
StartChar: h
Encoding: 104 104 2
Width: 312
VWidth: 0
Flags: HMW
LayerCount: 2
Fore
SplineSet
60 571 m 0
 73 571 85 561 85 548 c 0
 85 547 84 548 84 547 c 2
 85 545 l 1
 85 487 l 2
 85 486 84 486 84 485 c 0
 84 484 85 484 85 483 c 0
 85 447 85 414 85 378 c 0
 85 377 84 377 84 376 c 2
 85 375 l 1
 85 334 l 1
 125 334 164 334 204 334 c 0
 217 334 227 322 227 309 c 0
 227 296 217 286 204 286 c 2
 85 286 l 1
 85 154 l 2
 85 153 84 153 84 152 c 0
 84 151 85 151 85 150 c 2
 85 89 l 2
 85 88 84 88 84 87 c 0
 84 86 85 85 85 84 c 0
 85 64 85 44 85 24 c 0
 85 11 73 0 60 0 c 0
 47 0 37 11 37 24 c 2
 37 548 l 2
 37 561 47 571 60 571 c 0
251 286 m 0
 264 286 275 275 275 262 c 2
 275 154 l 2
 275 153 274 153 274 152 c 0
 274 151 275 151 275 150 c 2
 275 89 l 2
 275 88 274 88 274 87 c 0
 274 86 275 85 275 84 c 0
 275 64 275 44 275 24 c 0
 275 11 264 0 251 0 c 0
 238 0 227 11 227 24 c 0
 227 104 227 182 227 262 c 0
 227 275 238 286 251 286 c 0
EndSplineSet
EndChar
StartChar: i
Encoding: 105 105 44
Width: 123
VWidth: 0
Flags: HMW
LayerCount: 2
Fore
SplineSet
59 477 m 0
 72 477 84 466 84 453 c 0
 84 440 72 429 59 429 c 0
 46 429 36 440 36 453 c 0
 36 466 46 477 59 477 c 0
59 334 m 0
 72 334 84 322 84 309 c 0
 84 308 83 308 83 307 c 0
 83 306 84 306 84 305 c 2
 84 29 l 2
 84 28 83 28 83 27 c 0
 83 26 84 25 84 24 c 0
 84 11 72 0 59 0 c 0
 46 0 36 11 36 24 c 2
 36 309 l 2
 36 322 46 334 59 334 c 0
EndSplineSet
EndChar
StartChar: j
Encoding: 106 106 43
Width: 203
VWidth: 0
Flags: HMW
LayerCount: 2
Fore
SplineSet
139 477 m 0
 152 477 164 466 164 453 c 0
 164 440 152 429 139 429 c 0
 126 429 116 440 116 453 c 0
 116 466 126 477 139 477 c 0
139 334 m 0
 152 334 164 322 164 309 c 0
 164 308 163 308 163 307 c 0
 163 306 164 306 164 305 c 0
 164 202 164 98 164 -5 c 0
 164 -6 163 -7 163 -8 c 0
 163 -9 164 -10 164 -11 c 2
 164 -72 l 2
 164 -85 152 -95 139 -95 c 0
 126 -95 116 -85 116 -72 c 2
 116 309 l 2
 116 322 126 334 139 334 c 0
116 -119 m 0
 116 -130 106 -143 94 -143 c 0
 78 -143 60 -143 44 -143 c 0
 31 -143 20 -132 20 -119 c 0
 20 -106 31 -95 44 -95 c 2
 94 -95 l 2
 106 -95 116 -108 116 -119 c 0
EndSplineSet
EndChar
StartChar: k
Encoding: 107 107 42
Width: 300
VWidth: 0
Flags: HMW
LayerCount: 2
Fore
SplineSet
245 93 m 0
 258 93 269 83 269 70 c 0
 269 54.3333333333 269 38.6666666667 269 23 c 0
 269 10 258 0 245 0 c 0
 232 0 223 10 223 23 c 1
 222 24 l 1
 223 25 l 1
 223 66 l 1
 222 68 l 2
 222 69 223 69 223 70 c 0
 223 83 232 93 245 93 c 0
182 140 m 2
 216 140 l 2
 220 140 223 137 223 133 c 2
 223 99 l 2
 223 95 220 93 216 93 c 2
 182 93 l 2
 178 93 176 95 176 99 c 2
 176 133 l 2
 176 137 178 140 182 140 c 2
135 187 m 2
 169 187 l 2
 173 187 176 184 176 180 c 2
 176 146 l 2
 176 142 173 140 169 140 c 2
 135 140 l 2
 131 140 129 142 129 146 c 2
 129 180 l 2
 129 184 131 187 135 187 c 2
135 279 m 2
 169 279 l 2
 173 279 176 277 176 273 c 2
 176 239 l 2
 176 235 173 233 169 233 c 2
 135 233 l 2
 131 233 129 235 129 239 c 2
 129 273 l 2
 129 277 131 279 135 279 c 2
182 326 m 2
 216 326 l 2
 220 326 223 323 223 319 c 2
 223 286 l 2
 223 282 220 279 216 279 c 2
 182 279 l 2
 178 279 176 282 176 286 c 2
 176 319 l 2
 176 323 178 326 182 326 c 2
245 373 m 0
 258 373 269 362 269 349 c 0
 269 336 258 326 245 326 c 0
 232 326 223 336 223 349 c 0
 223 362 232 373 245 373 c 0
129 209 m 0
 129 197 119 187 106 187 c 2
 83 187 l 1
 83 87 l 2
 83 86 82 86 82 85 c 0
 82 84 83 84 83 83 c 2
 83 30 l 2
 83 29 82 28 82 27 c 0
 82 26 83 24 83 23 c 0
 83 10 72 0 59 0 c 0
 46 0 36 10 36 23 c 2
 36 535 l 2
 36 548 46 558 59 558 c 0
 72 558 83 548 83 535 c 0
 83 534 82 533 82 532 c 0
 82 531 83 531 83 530 c 2
 83 233 l 1
 106 233 l 2
 119 233 129 221 129 209 c 0
EndSplineSet
EndChar
StartChar: l
Encoding: 108 108 41
Width: 245
VWidth: 0
Flags: HMW
LayerCount: 2
Fore
SplineSet
105 47 m 2
 198 47 l 2
 211 47 221 36 221 23 c 0
 221 10 211 0 198 0 c 2
 105 0 l 2
 92 0 82 10 82 23 c 0
 82 36 92 47 105 47 c 2
58 558 m 0
 71 558 82 548 82 535 c 1
 81 534 l 1
 82 533 l 1
 82 133 l 2
 82 132 81 131 81 130 c 0
 81 129 82 130 82 129 c 2
 82 70 l 2
 82 57 71 47 58 47 c 0
 45 47 35 57 35 70 c 0
 35 225 35 380 35 535 c 0
 35 548 45 558 58 558 c 0
EndSplineSet
EndChar
StartChar: m
Encoding: 109 109 40
Width: 306
VWidth: 0
Flags: HMW
LayerCount: 2
Fore
SplineSet
244 279 m 0
 257 279 268 269 268 256 c 2
 268 137 l 2
 268 136 267 136 267 135 c 2
 267 135 268 134 268 133 c 2
 268 23 l 2
 268 10 257 0 244 0 c 0
 231 0 222 10 222 23 c 0
 222 24 221 24 221 25 c 0
 221 26 222 26 222 27 c 0
 222 63 222 97 222 133 c 0
 222 134 221 135 221 135 c 2
 221 136 222 136 222 137 c 2
 222 254 l 1
 221 255 l 1
 222 256 l 1
 222 269 231 279 244 279 c 0
151 279 m 0
 164 279 175 269 175 256 c 2
 175 23 l 2
 175 10 164 0 151 0 c 0
 138 0 128 10 128 23 c 2
 128 256 l 2
 128 269 138 279 151 279 c 0
198 326 m 0
 211 326 222 315 222 302 c 0
 222 289 211 279 198 279 c 0
 185 279 175 289 175 302 c 0
 175 315 185 326 198 326 c 0
58 326 m 2
 105 326 l 2
 118 326 128 315 128 302 c 0
 128 289 118 279 105 279 c 0
 97.3333333333 279 89.6666666667 279 82 279 c 1
 82 27 l 2
 82 26 81 26 81 25 c 0
 81 24 82 24 82 23 c 0
 82 10 71 0 58 0 c 0
 45 0 35 10 35 23 c 2
 35 302 l 2
 35 315 45 326 58 326 c 2
EndSplineSet
EndChar
StartChar: n
Encoding: 110 110 39
Width: 306
VWidth: 0
Flags: W
HStem: 0 21G<40.5908 77.9404 226.714 264.063> 279.184 46.5312<82.5312 222.123>
VStem: 36 46.5312<0 279.184> 222.123 46.5312<0 279.184>
LayerCount: 2
Fore
SplineSet
215.7734375 325.71484375 m 0
 219.436523438 325.71484375 222.123046875 322.765625 222.123046875 319.365234375 c 2
 222.123046875 285.533203125 l 2
 222.123046875 282.015625 219.291015625 279.18359375 215.7734375 279.18359375 c 2
 82.53125 279.18359375 l 1
 82.53125 188.239257812 82.53125 97.2939453125 82.53125 6.349609375 c 0
 82.53125 2.83203125 79.69921875 0 76.181640625 0 c 2
 42.349609375 0 l 2
 38.83203125 0 36 2.83203125 36 6.349609375 c 2
 36 319.365234375 l 2
 36 322.8828125 38.83203125 325.71484375 42.349609375 325.71484375 c 0
 100.157226562 325.71484375 157.965820312 325.71484375 215.7734375 325.71484375 c 0
228.47265625 279.18359375 m 2
 262.3046875 279.18359375 l 2
 265.822265625 279.18359375 268.654296875 276.3515625 268.654296875 272.833984375 c 2
 268.654296875 6.349609375 l 2
 268.654296875 2.83203125 265.822265625 0 262.3046875 0 c 2
 228.47265625 0 l 2
 224.955078125 0 222.123046875 2.83203125 222.123046875 6.349609375 c 2
 222.123046875 272.833984375 l 2
 222.123046875 276.3515625 224.955078125 279.18359375 228.47265625 279.18359375 c 2
EndSplineSet
Validated: 524289
EndChar
StartChar: o
Encoding: 111 111 38
Width: 305
VWidth: 0
Flags: HMW
LayerCount: 2
Fore
SplineSet
56 0 m 2
 44 0 35 12 35 23 c 0
 35 24 35 24 35 25 c 0
 35 26 35 26 35 27 c 2
 35 298 l 2
 35 299 35 299 35 300 c 0
 35 301 35 301 35 302 c 0
 35 315 45 326 58 326 c 2
 59 326 l 1
 198 326 l 2
 211 326 221 315 221 302 c 0
 221 289 211 279 198 279 c 2
 82 279 l 1
 82 47 l 1
 221 47 l 1
 221 116 221 183 221 252 c 0
 221 253 221 254 221 254 c 2
 221 255 221 255 221 256 c 0
 221 269 231 279 244 279 c 0
 257 279 268 269 268 256 c 0
 268 255 268 255 268 254 c 2
 268 254 268 253 268 252 c 2
 268 27 l 2
 268 26 268 26 268 25 c 0
 268 24 268 24 268 23 c 0
 268 12 259 0 247 0 c 2
 56 0 l 2
EndSplineSet
Validated: 1
EndChar
StartChar: p
Encoding: 112 112 37
Width: 306
VWidth: 0
Flags: W
HStem: -139.592 21G<40.5908 77.9404> 0 46.5312<82.5312 222.123> 279.184 46.5312<82.5312 222.123>
VStem: 36 46.5312<-139.592 0 46.5312 279.184> 222.123 46.5312<46.5312 279.184>
LayerCount: 2
Fore
SplineSet
42.349609375 325.71484375 m 0
 100.157226562 325.71484375 157.965820312 325.71484375 215.7734375 325.71484375 c 0
 219.291015625 325.71484375 222.123046875 322.8828125 222.123046875 319.365234375 c 2
 222.123046875 285.533203125 l 2
 222.123046875 282.015625 219.291015625 279.18359375 215.7734375 279.18359375 c 0
 171.359375 279.18359375 126.9453125 279.18359375 82.53125 279.18359375 c 1
 82.53125 46.53125 l 1
 129.061523438 46.53125 175.592773438 46.53125 222.123046875 46.53125 c 1
 222.123046875 121.965820312 222.123046875 197.399414062 222.123046875 272.833984375 c 0
 222.123046875 276.3515625 224.955078125 279.18359375 228.47265625 279.18359375 c 2
 262.3046875 279.18359375 l 2
 265.822265625 279.18359375 268.654296875 276.3515625 268.654296875 272.833984375 c 0
 268.654296875 184.005859375 268.654296875 95.177734375 268.654296875 6.349609375 c 0
 268.654296875 2.83203125 265.822265625 0 262.3046875 0 c 0
 202.379882812 0 142.456054688 0 82.53125 0 c 1
 82.53125 -44.4140625 82.53125 -88.828125 82.53125 -133.2421875 c 0
 82.53125 -136.759765625 79.69921875 -139.591796875 76.181640625 -139.591796875 c 2
 42.349609375 -139.591796875 l 2
 38.83203125 -139.591796875 36 -136.759765625 36 -133.2421875 c 0
 36 17.626953125 36 168.49609375 36 319.365234375 c 0
 36 322.8828125 38.83203125 325.71484375 42.349609375 325.71484375 c 0
EndSplineSet
Validated: 524289
EndChar
StartChar: q
Encoding: 113 113 36
Width: 305
VWidth: 0
Flags: W
HStem: -139.592 21G<224.714 262.063> 0 46.5312<80.5312 220.123> 279.184 46.5312<80.5313 220.123>
VStem: 34 46.5312<46.5312 279.184> 220.123 46.5312<-139.592 0 46.5312 279.184>
LayerCount: 2
Fore
SplineSet
86.880859375 325.71484375 m 0
 144.688476562 325.71484375 202.497070312 325.71484375 260.3046875 325.71484375 c 0
 263.822265625 325.71484375 266.654296875 322.8828125 266.654296875 319.365234375 c 2
 266.654296875 285.533203125 l 2
 266.654296875 285.221679688 266.625 284.91796875 266.58203125 284.619140625 c 0
 266.625 283.51171875 266.654296875 282.396484375 266.654296875 281.267578125 c 2
 266.654296875 -133.2421875 l 2
 266.654296875 -136.759765625 263.822265625 -139.591796875 260.3046875 -139.591796875 c 2
 226.47265625 -139.591796875 l 2
 222.955078125 -139.591796875 220.123046875 -136.759765625 220.123046875 -133.2421875 c 0
 220.123046875 -88.828125 220.123046875 -44.4140625 220.123046875 0 c 1
 160.198242188 0 100.274414062 0 40.349609375 0 c 0
 36.83203125 0 34 2.83203125 34 6.349609375 c 2
 34 272.833984375 l 2
 34 276.3515625 36.83203125 279.18359375 40.349609375 279.18359375 c 2
 74.181640625 279.18359375 l 2
 77.69921875 279.18359375 80.53125 276.3515625 80.53125 272.833984375 c 0
 80.53125 197.399414062 80.53125 121.965820312 80.53125 46.53125 c 1
 220.123046875 46.53125 l 1
 220.123046875 279.18359375 l 1
 175.708984375 279.18359375 131.294921875 279.18359375 86.880859375 279.18359375 c 0
 83.36328125 279.18359375 80.53125 282.015625 80.53125 285.533203125 c 2
 80.53125 319.365234375 l 2
 80.53125 322.8828125 83.36328125 325.71484375 86.880859375 325.71484375 c 0
EndSplineSet
Validated: 524289
EndChar
StartChar: r
Encoding: 114 114 35
Width: 295
VWidth: 0
Flags: HMW
LayerCount: 2
Fore
SplineSet
57 279 m 0
 70 279 81 269 81 256 c 2
 81 26 l 1
 80 25 l 2
 80 24 81 24 81 23 c 0
 81 10 70 0 57 0 c 0
 44 0 34 10 34 23 c 0
 34 100.666666667 34 178.333333333 34 256 c 0
 34 269 44 279 57 279 c 0
267 302 m 0
 267 289 257 279 244 279 c 0
 197 279 151 279 104 279 c 0
 91 279 81 289 81 302 c 0
 81 315 91 326 104 326 c 0
 151 326 197 326 244 326 c 0
 257 326 267 315 267 302 c 0
EndSplineSet
EndChar
StartChar: s
Encoding: 115 115 34
Width: 302
VWidth: 0
Flags: HW
HStem: 0 46.5312<32.0596 218.123> 139.592 46.5312<78.5312 218.123> 279.184 46.5312<78.5988 264.592>
VStem: 32 46.5312<186.123 279.116> 218.123 46.5312<46.5312 139.592>
CounterMasks: 1 e0
LayerCount: 2
Fore
SplineSet
264.654296875 302.44921875 m 0
 264.654296875 290.572265625 255.110351562 279.18359375 242.583984375 279.18359375 c 2
 106.158203125 279.18359375 l 2
 105.64453125 279.18359375 105.147460938 279.250976562 104.669921875 279.365234375 c 0
 103.728515625 279.25 102.770507812 279.18359375 101.796875 279.18359375 c 0
 88.908203125 279.18359375 78.53125 289.560546875 78.53125 302.44921875 c 0
 78.53125 315.337890625 88.908203125 325.71484375 101.796875 325.71484375 c 0
 102.770507812 325.71484375 103.7265625 325.6484375 104.66796875 325.533203125 c 0
 105.146484375 325.647460938 105.643554688 325.71484375 106.158203125 325.71484375 c 2
 242.583984375 325.71484375 l 2
 255.110351562 325.71484375 264.654296875 314.318359375 264.654296875 302.44921875 c 0
32 23.265625 m 0
 32 34.5361328125 41.134765625 46.53125 53.3125 46.53125 c 2
 218.123046875 46.53125 l 1
 218.123046875 139.591796875 l 1
 56.091796875 139.591796875 l 2
 56.001953125 139.591796875 55.9130859375 139.6015625 55.82421875 139.60546875 c 0
 55.6376953125 139.6015625 55.453125 139.591796875 55.265625 139.591796875 c 0
 42.376953125 139.591796875 32 149.96875 32 162.857421875 c 0
 32 163.469726562 32.0322265625 164.07421875 32.078125 164.673828125 c 0
 32.0302734375 165.181640625 32 165.694335938 32 166.21484375 c 2
 32 252.560546875 l 2
 32 253.081054688 32.0302734375 253.59375 32.078125 254.1015625 c 0
 32.0322265625 254.701171875 32 255.305664062 32 255.91796875 c 0
 32 268.806640625 42.376953125 279.18359375 55.265625 279.18359375 c 0
 68.154296875 279.18359375 78.53125 268.806640625 78.53125 255.91796875 c 0
 78.53125 255.30078125 78.501953125 254.69140625 78.455078125 254.0859375 c 0
 78.501953125 253.583984375 78.53125 253.075195312 78.53125 252.560546875 c 2
 78.53125 186.123046875 l 1
 239.552734375 186.123046875 l 2
 239.763671875 186.123046875 239.971679688 186.111328125 240.177734375 186.091796875 c 0
 240.578125 186.112304688 240.982421875 186.123046875 241.388671875 186.123046875 c 0
 254.27734375 186.123046875 264.654296875 175.74609375 264.654296875 162.857421875 c 0
 264.654296875 162.818359375 264.650390625 162.78125 264.654296875 162.68359375 c 2
 264.654296875 27.025390625 l 2
 264.654296875 26.443359375 264.620117188 25.8681640625 264.560546875 25.302734375 c 0
 264.618164062 24.630859375 264.654296875 23.953125 264.654296875 23.265625 c 0
 264.654296875 10.376953125 254.27734375 0 241.388671875 0 c 0
 241.086914062 0 240.787109375 0.009765625 240.48828125 0.021484375 c 0
 240.345703125 0.01171875 240.204101562 0 240.05859375 0 c 2
 53.3125 0 l 2
 41.1318359375 0 32 12.00390625 32 23.265625 c 0
EndSplineSet
EndChar
StartChar: t
Encoding: 116 116 33
Width: 232
VWidth: 0
Flags: HW
LayerCount: 2
Fore
SplineSet
91.796875 558.3671875 m 0
 104.685546875 558.3671875 115.0625 547.990234375 115.0625 535.1015625 c 0
 115.0625 534.409179688 115.025390625 533.725585938 114.966796875 533.048828125 c 0
 115.0234375 532.607421875 115.0625 532.159179688 115.0625 531.701171875 c 0
 115.0625 497.654296875 115.0625 463.607421875 115.0625 429.560546875 c 0
 115.0625 429.396484375 115.043945312 429.23828125 115.037109375 429.076171875 c 0
 115.043945312 428.912109375 115.0625 428.75 115.0625 428.583984375 c 0
 115.0625 394.294270833 115.0625 360.004557292 115.0625 325.71484375 c 1
 183.90625 325.71484375 l 2
 184.014648438 325.71484375 184.120117188 325.704101562 184.2265625 325.69921875 c 0
 184.436523438 325.705078125 184.645507812 325.71484375 184.857421875 325.71484375 c 0
 197.74609375 325.71484375 208.123046875 315.337890625 208.123046875 302.44921875 c 0
 208.123046875 289.560546875 197.74609375 279.18359375 184.857421875 279.18359375 c 0
 184.641601562 279.18359375 184.427734375 279.193359375 184.212890625 279.19921875 c 0
 184.110351562 279.194335938 184.009765625 279.18359375 183.90625 279.18359375 c 2
 115.0625 279.18359375 l 1
 115.0625 210.172526042 115.0625 141.161458333 115.0625 72.150390625 c 0
 115.0625 71.83203125 115.04296875 71.5185546875 115.015625 71.20703125 c 0
 115.04296875 70.740234375 115.0625 70.271484375 115.0625 69.796875 c 0
 115.0625 56.908203125 104.685546875 46.53125 91.796875 46.53125 c 0
 78.908203125 46.53125 68.53125 56.908203125 68.53125 69.796875 c 0
 68.53125 70.2763671875 68.5498046875 70.75 68.578125 71.22265625 c 0
 68.5517578125 71.529296875 68.53125 71.8369140625 68.53125 72.150390625 c 0
 68.53125 141.161458333 68.53125 210.172526042 68.53125 279.18359375 c 1
 48.6171875 279.18359375 l 2
 48.2294921875 279.18359375 47.8505859375 279.22265625 47.482421875 279.2890625 c 0
 46.7529296875 279.220703125 46.013671875 279.18359375 45.265625 279.18359375 c 0
 32.376953125 279.18359375 22 289.560546875 22 302.44921875 c 0
 22 315.337890625 32.376953125 325.71484375 45.265625 325.71484375 c 0
 46.01171875 325.71484375 46.7470703125 325.67578125 47.474609375 325.607421875 c 0
 47.845703125 325.674804688 48.2265625 325.71484375 48.6171875 325.71484375 c 2
 68.53125 325.71484375 l 1
 68.53125 360.004557292 68.53125 394.294270833 68.53125 428.583984375 c 0
 68.53125 428.747070312 68.55078125 428.905273438 68.556640625 429.06640625 c 0
 68.548828125 429.231445312 68.53125 429.393554688 68.53125 429.560546875 c 0
 68.53125 463.607421875 68.53125 497.654296875 68.53125 531.701171875 c 0
 68.53125 532.15625 68.5693359375 532.6015625 68.625 533.041015625 c 0
 68.5654296875 533.720703125 68.53125 534.40625 68.53125 535.1015625 c 0
 68.53125 547.990234375 78.908203125 558.3671875 91.796875 558.3671875 c 0
138.326171875 46.53125 m 0
 151.21484375 46.53125 161.591796875 36.154296875 161.591796875 23.265625 c 0
 161.591796875 10.376953125 151.21484375 0 138.326171875 0 c 0
 125.4375 0 115.0625 10.376953125 115.0625 23.265625 c 0
 115.0625 36.154296875 125.4375 46.53125 138.326171875 46.53125 c 0
EndSplineSet
EndChar
StartChar: u
Encoding: 117 117 32
Width: 308
VWidth: 0
Flags: HW
LayerCount: 2
Fore
SplineSet
58.265625 325.71484375 m 0
 71.154296875 325.71484375 81.53125 315.337890625 81.53125 302.44921875 c 0
 81.53125 301.37890625 81.453125 300.328125 81.314453125 299.296875 c 0
 81.455078125 298.620117188 81.53125 297.918945312 81.53125 297.19921875 c 2
 81.53125 74.73828125 l 2
 81.53125 74.0615234375 81.4619140625 73.4013671875 81.337890625 72.76171875 c 0
 81.4609375 71.7900390625 81.53125 70.80078125 81.53125 69.794921875 c 0
 81.53125 56.90625 71.154296875 46.53125 58.265625 46.53125 c 0
 45.376953125 46.53125 35 56.90625 35 69.794921875 c 0
 35 70.8017578125 35.0703125 71.7919921875 35.193359375 72.763671875 c 0
 35.0693359375 73.40234375 35 74.0615234375 35 74.73828125 c 2
 35 297.19921875 l 2
 35 297.919921875 35.076171875 298.62109375 35.216796875 299.298828125 c 0
 35.078125 300.329101562 35 301.379882812 35 302.44921875 c 0
 35 315.337890625 45.376953125 325.71484375 58.265625 325.71484375 c 0
244.388671875 325.71484375 m 0
 257.27734375 325.71484375 267.654296875 315.337890625 267.654296875 302.44921875 c 0
 267.654296875 301.234375 267.560546875 300.041992188 267.3828125 298.87890625 c 0
 267.553710938 298.140625 267.654296875 297.374023438 267.654296875 296.58203125 c 2
 267.654296875 24.505859375 l 2
 267.654296875 24.3642578125 267.637695312 24.2275390625 267.6328125 24.087890625 c 0
 267.642578125 23.814453125 267.654296875 23.541015625 267.654296875 23.265625 c 0
 267.654296875 10.376953125 257.27734375 0 244.388671875 0 c 0
 243.677734375 0 242.975585938 0.0361328125 242.28125 0.09765625 c 0
 241.9296875 0.0380859375 241.5703125 0 241.201171875 0 c 0
 196.319010417 -0 151.436848958 0 106.5546875 0 c 0
 106.3671875 0 106.181640625 0.013671875 105.984375 0.029296875 c 0
 105.590820312 0.009765625 105.1953125 0 104.796875 0 c 0
 91.908203125 0 81.53125 10.376953125 81.53125 23.265625 c 0
 81.53125 36.154296875 91.908203125 46.53125 104.796875 46.53125 c 0
 105.1875 46.53125 105.575195312 46.5205078125 105.9609375 46.501953125 c 0
 106.15625 46.51953125 106.354492188 46.53125 106.5546875 46.53125 c 0
 144.744140625 46.53125 182.93359375 46.53125 221.123046875 46.53125 c 1
 221.123046875 296.58203125 l 2
 221.123046875 297.374023438 221.223632812 298.140625 221.39453125 298.87890625 c 0
 221.216796875 300.041992188 221.123046875 301.234375 221.123046875 302.44921875 c 0
 221.123046875 315.337890625 231.5 325.71484375 244.388671875 325.71484375 c 0
EndSplineSet
EndChar
StartChar: v
Encoding: 118 118 19
Width: 299
VWidth: 0
Flags: HMW
LayerCount: 2
Fore
SplineSet
55 326 m 0
 68 326 79 315 79 302 c 2
 79 301 l 1
 79 164 l 1
 79 163 l 2
 79 150 68 140 55 140 c 0
 42 140 32 150 32 163 c 2
 32 164 l 1
 32 301 l 1
 32 302 l 2
 32 315 42 326 55 326 c 0
241 279 m 0
 254 279 265 269 265 256 c 0
 265 255 265 255 265 254 c 0
 265 253 265 253 265 252 c 2
 265 167 l 2
 265 166 265 166 265 165 c 0
 265 164 265 164 265 163 c 0
 265 150 254 140 241 140 c 0
 228 140 219 150 219 163 c 0
 219 164 218 164 218 165 c 0
 218 166 219 166 219 167 c 2
 219 252 l 2
 219 253 218 253 218 254 c 0
 218 255 219 255 219 256 c 0
 219 269 228 279 241 279 c 0
102 140 m 0
 115 140 126 129 126 116 c 1
 125 115 l 1
 126 115 l 1
 126 72 l 1
 125 71 l 1
 126 70 l 1
 126 57 115 47 102 47 c 0
 89 47 79 57 79 70 c 2
 79 71 l 1
 79 72 l 1
 79 115 l 1
 79 116 l 2
 79 129 89 140 102 140 c 0
195 140 m 0
 208 140 219 129 219 116 c 1
 218 115 l 1
 219 114 l 1
 219 71 l 1
 218 71 l 1
 219 70 l 1
 219 57 208 47 195 47 c 0
 182 47 172 57 172 70 c 2
 172 71 l 1
 172 114 l 1
 172 115 l 1
 172 116 l 2
 172 129 182 140 195 140 c 0
148 47 m 0
 161 47 172 36 172 23 c 0
 172 10 161 0 148 0 c 0
 135 0 126 10 126 23 c 0
 126 36 135 47 148 47 c 0
EndSplineSet
Validated: 1
EndChar
StartChar: w
Encoding: 119 119 18
Width: 309
VWidth: 0
Flags: HW
LayerCount: 2
Fore
SplineSet
59.259765625 0 m 0
 46.6701198593 0 37 11.2351200218 37 23.265625 c 0
 37 24.111328125 37.0478515625 24.9443359375 37.134765625 25.765625 c 0
 37.0546875 26.2880859375 37 26.8193359375 37 27.365234375 c 2
 37 82.6796875 l 2
 37 83.4560546875 37.091796875 84.2099609375 37.251953125 84.9375 c 0
 37.0908203125 85.6865234375 37 86.462890625 37 87.26171875 c 2
 37 145.390625 l 2
 37 145.484375 37.01171875 145.575195312 37.013671875 145.66796875 c 0
 37.009765625 145.759765625 37 145.848632812 37 145.94140625 c 2
 37 299.51171875 l 2
 37 299.91796875 37.0283203125 300.315429688 37.072265625 300.708984375 c 0
 37.0302734375 301.284179688 37 301.86328125 37 302.44921875 c 0
 37 315.337890625 47.376953125 325.71484375 60.265625 325.71484375 c 0
 73.154296875 325.71484375 83.53125 315.337890625 83.53125 302.44921875 c 0
 83.53125 301.860351562 83.50390625 301.279296875 83.4609375 300.701171875 c 0
 83.5048828125 300.310546875 83.53125 299.915039062 83.53125 299.51171875 c 2
 83.53125 145.94140625 l 2
 83.53125 145.848632812 83.521484375 145.759765625 83.517578125 145.66796875 c 0
 83.51953125 145.575195312 83.53125 145.484375 83.53125 145.390625 c 2
 83.53125 87.26171875 l 2
 83.53125 86.462890625 83.4404296875 85.6865234375 83.279296875 84.9375 c 0
 83.439453125 84.2099609375 83.53125 83.4560546875 83.53125 82.6796875 c 2
 83.53125 46.53125 l 1
 106.4765625 46.53125 l 2
 106.512695312 46.53125 106.547851562 46.5263671875 106.583984375 46.525390625 c 0
 106.655273438 46.5263671875 106.725585938 46.53125 106.796875 46.53125 c 0
 119.685546875 46.53125 130.0625 36.154296875 130.0625 23.265625 c 0
 130.0625 10.376953125 119.685546875 0 106.796875 0 c 0
 106.724609375 0 106.65234375 0.0048828125 106.580078125 0.005859375 c 0
 106.544921875 0.0048828125 106.51171875 0 106.4765625 0 c 0
 90.7376302083 -0 74.9986979167 0 59.259765625 0 c 0
246.388671875 325.71484375 m 0
 259.27734375 325.71484375 269.654296875 315.337890625 269.654296875 302.44921875 c 0
 269.654296875 302.03125 269.640625 301.615234375 269.619140625 301.203125 c 0
 269.6328125 300.979492188 269.654296875 300.756835938 269.654296875 300.529296875 c 2
 269.654296875 243.37890625 l 2
 269.654296875 242.79296875 269.59375 242.223632812 269.50390625 241.6640625 c 0
 269.59375 241.084960938 269.654296875 240.495117188 269.654296875 239.890625 c 2
 269.654296875 72.369140625 l 2
 269.654296875 72.0068359375 269.634765625 71.6484375 269.599609375 71.294921875 c 0
 269.630859375 70.798828125 269.654296875 70.298828125 269.654296875 69.794921875 c 0
 269.654296875 56.90625 259.27734375 46.53125 246.388671875 46.53125 c 0
 233.5 46.53125 223.123046875 56.90625 223.123046875 69.794921875 c 0
 223.123046875 70.3046875 223.143554688 70.8095703125 223.17578125 71.310546875 c 0
 223.141601562 71.658203125 223.123046875 72.01171875 223.123046875 72.369140625 c 2
 223.123046875 239.890625 l 2
 223.123046875 240.493164062 223.182617188 241.081054688 223.271484375 241.658203125 c 0
 223.181640625 242.219726562 223.123046875 242.791015625 223.123046875 243.37890625 c 2
 223.123046875 300.529296875 l 2
 223.123046875 300.754882812 223.142578125 300.975585938 223.15625 301.197265625 c 0
 223.134765625 301.611328125 223.123046875 302.029296875 223.123046875 302.44921875 c 0
 223.123046875 315.337890625 233.5 325.71484375 246.388671875 325.71484375 c 0
153.326171875 186.123046875 m 0
 166.21484375 186.123046875 176.591796875 175.74609375 176.591796875 162.857421875 c 0
 176.591796875 162.249023438 176.5625 161.6484375 176.517578125 161.052734375 c 0
 176.561523438 160.559570312 176.591796875 160.063476562 176.591796875 159.55859375 c 2
 176.591796875 70.8359375 l 2
 176.591796875 70.720703125 176.576171875 70.6103515625 176.57421875 70.49609375 c 0
 176.581054688 70.2626953125 176.591796875 70.0302734375 176.591796875 69.794921875 c 0
 176.591796875 56.90625 166.21484375 46.53125 153.326171875 46.53125 c 0
 140.4375 46.53125 130.0625 56.90625 130.0625 69.794921875 c 0
 130.0625 70.0302734375 130.073242188 70.2626953125 130.080078125 70.49609375 c 0
 130.078125 70.6103515625 130.0625 70.720703125 130.0625 70.8359375 c 2
 130.0625 159.55859375 l 2
 130.0625 160.063476562 130.092773438 160.559570312 130.13671875 161.052734375 c 0
 130.091796875 161.6484375 130.0625 162.249023438 130.0625 162.857421875 c 0
 130.0625 175.74609375 140.4375 186.123046875 153.326171875 186.123046875 c 0
199.857421875 46.53125 m 0
 212.74609375 46.53125 223.123046875 36.154296875 223.123046875 23.265625 c 0
 223.123046875 10.376953125 212.74609375 0 199.857421875 0 c 0
 186.96875 0 176.591796875 10.376953125 176.591796875 23.265625 c 0
 176.591796875 36.154296875 186.96875 46.53125 199.857421875 46.53125 c 0
EndSplineSet
EndChar
StartChar: x
Encoding: 120 120 8
Width: 305
VWidth: 0
Flags: W
HStem: 0 139.592<35.1197 81.4116 221.191 267.468> 93.0605 46.5312<81.5312 127.995 174.659 221.123> 139.592 46.5312<128.13 174.524> 186.123 46.5293<81.5312 127.995 174.659 221.055> 232.652 93.0625<221.39 267.387>
VStem: 35 93.0625<93.1281 139.472 186.191 232.585> 35 46.5312<0.0675927 93.0605 232.652 325.647> 128.062 46.5293<139.659 186.055> 174.592 93.0625<93.1281 139.524> 174.592 46.5312<186.191 232.585> 221.123 46.5312<0.0675927 93.0605 232.72 325.647>
LayerCount: 2
Fore
SplineSet
58.265625 325.71484375 m 0x0a
 71.154296875 325.71484375 81.53125 315.337890625 81.53125 302.44921875 c 0
 81.53125 301.725585938 81.494140625 301.01171875 81.4296875 300.3046875 c 0
 81.4931640625 299.725585938 81.53125 299.137695312 81.53125 298.541015625 c 2
 81.53125 232.65234375 l 1x12
 103.435546875 232.65234375 l 2
 103.586914062 232.65234375 103.735351562 232.638671875 103.884765625 232.630859375 c 0
 104.1875 232.642578125 104.491210938 232.65234375 104.796875 232.65234375 c 0
 117.685546875 232.65234375 128.0625 222.27734375 128.0625 209.388671875 c 0
 128.0625 196.5 117.685546875 186.123046875 104.796875 186.123046875 c 0
 104.491210938 186.123046875 104.1875 186.1328125 103.884765625 186.14453125 c 0
 103.735351562 186.13671875 103.586914062 186.123046875 103.435546875 186.123046875 c 2
 60.515625 186.123046875 l 2
 60.228515625 186.123046875 59.9453125 186.138671875 59.666015625 186.16796875 c 0
 59.2021484375 186.140625 58.736328125 186.123046875 58.265625 186.123046875 c 0
 45.376953125 186.123046875 35 196.5 35 209.388671875 c 0
 35 210.109375 35.0380859375 210.8203125 35.1015625 211.5234375 c 0
 35.0380859375 212.10546875 35 212.6953125 35 213.294921875 c 2x14
 35 298.541015625 l 2
 35 299.141601562 35.0380859375 299.731445312 35.1015625 300.314453125 c 0
 35.0380859375 301.017578125 35 301.728515625 35 302.44921875 c 0
 35 315.337890625 45.376953125 325.71484375 58.265625 325.71484375 c 0x0a
244.388671875 325.71484375 m 0x0820
 257.27734375 325.71484375 267.654296875 315.337890625 267.654296875 302.44921875 c 0
 267.654296875 302.333007812 267.646484375 302.21875 267.64453125 302.103515625 c 0
 267.645507812 302.044921875 267.654296875 301.98828125 267.654296875 301.9296875 c 2
 267.654296875 260.697265625 l 2
 267.654296875 260.09765625 267.579101562 259.518554688 267.451171875 258.958984375 c 0
 267.580078125 257.963867188 267.654296875 256.94921875 267.654296875 255.91796875 c 0
 267.654296875 243.029296875 257.27734375 232.65234375 244.388671875 232.65234375 c 0
 231.5 232.65234375 221.123046875 243.029296875 221.123046875 255.91796875 c 0
 221.123046875 256.94921875 221.1953125 257.961914062 221.32421875 258.95703125 c 0
 221.196289062 259.516601562 221.123046875 260.09765625 221.123046875 260.697265625 c 2
 221.123046875 301.9296875 l 2
 221.123046875 301.987304688 221.129882812 302.043945312 221.130859375 302.1015625 c 0
 221.12890625 302.217773438 221.123046875 302.333007812 221.123046875 302.44921875 c 0
 221.123046875 315.337890625 231.5 325.71484375 244.388671875 325.71484375 c 0x0820
197.857421875 232.65234375 m 0x1040
 210.74609375 232.65234375 221.123046875 222.27734375 221.123046875 209.388671875 c 0
 221.123046875 196.5 210.74609375 186.123046875 197.857421875 186.123046875 c 0
 184.96875 186.123046875 174.591796875 196.5 174.591796875 209.388671875 c 0
 174.591796875 222.27734375 184.96875 232.65234375 197.857421875 232.65234375 c 0x1040
151.326171875 186.123046875 m 0x21
 164.21484375 186.123046875 174.591796875 175.74609375 174.591796875 162.857421875 c 0
 174.591796875 149.96875 164.21484375 139.591796875 151.326171875 139.591796875 c 0
 138.4375 139.591796875 128.0625 149.96875 128.0625 162.857421875 c 0
 128.0625 175.74609375 138.4375 186.123046875 151.326171875 186.123046875 c 0x21
58.265625 139.591796875 m 0x84
 58.98828125 139.591796875 59.701171875 139.553710938 60.40625 139.490234375 c 0
 60.8056640625 139.55078125 61.2109375 139.591796875 61.626953125 139.591796875 c 2x84
 104.62890625 139.587890625 l 2
 104.685546875 139.587890625 104.740234375 139.591796875 104.796875 139.591796875 c 0
 117.685546875 139.591796875 128.0625 129.21484375 128.0625 116.326171875 c 0x44
 128.0625 103.4375 117.685546875 93.060546875 104.796875 93.060546875 c 0
 104.741210938 93.060546875 104.686523438 93.064453125 104.546875 93.060546875 c 2
 81.53125 93.060546875 l 1x42
 81.53125 26.580078125 l 2
 81.53125 26.0732421875 81.4990234375 25.5751953125 81.455078125 25.080078125 c 0
 81.5009765625 24.48046875 81.53125 23.876953125 81.53125 23.265625 c 0
 81.53125 10.376953125 71.154296875 0 58.265625 0 c 0
 45.376953125 0 35 10.376953125 35 23.265625 c 0
 35 23.8720703125 35.03125 24.470703125 35.076171875 25.064453125 c 0
 35.03125 25.564453125 35 26.0673828125 35 26.580078125 c 2x82
 35 115.07421875 l 2
 35 115.217773438 35.017578125 115.357421875 35.021484375 115.5 c 0
 35.01171875 115.774414062 35 116.048828125 35 116.326171875 c 0
 35 129.21484375 45.376953125 139.591796875 58.265625 139.591796875 c 0x84
197.857421875 139.591796875 m 0x4080
 198.112304688 139.591796875 198.364257812 139.58203125 198.6171875 139.57421875 c 0
 198.7421875 139.580078125 198.865234375 139.591796875 198.9921875 139.591796875 c 2x4080
 244.205078125 139.587890625 l 2
 244.266601562 139.588867188 244.327148438 139.591796875 244.388671875 139.591796875 c 0
 257.27734375 139.591796875 267.654296875 129.21484375 267.654296875 116.326171875 c 0
 267.654296875 115.364257812 267.588867188 114.418945312 267.4765625 113.48828125 c 0
 267.581054688 112.745117188 267.654296875 111.991210938 267.654296875 111.21875 c 2x8080
 267.654296875 25.97265625 l 2
 267.654296875 25.58203125 267.623046875 25.19921875 267.595703125 24.81640625 c 0
 267.62890625 24.3037109375 267.654296875 23.787109375 267.654296875 23.265625 c 0
 267.654296875 10.376953125 257.27734375 0 244.388671875 0 c 0x8020
 231.5 0 221.123046875 10.376953125 221.123046875 23.265625 c 0
 221.123046875 23.79296875 221.145507812 24.3134765625 221.1796875 24.83203125 c 0
 221.153320312 25.2099609375 221.123046875 25.587890625 221.123046875 25.97265625 c 2
 221.123046875 93.060546875 l 1x4020
 198.9921875 93.060546875 l 2
 198.864257812 93.060546875 198.740234375 93.07421875 198.61328125 93.080078125 c 0
 198.361328125 93.072265625 198.111328125 93.060546875 197.857421875 93.060546875 c 0
 184.96875 93.060546875 174.591796875 103.4375 174.591796875 116.326171875 c 0
 174.591796875 129.21484375 184.96875 139.591796875 197.857421875 139.591796875 c 0x4080
EndSplineSet
Validated: 524289
EndChar
StartChar: y
Encoding: 121 121 7
Width: 297
VWidth: 0
Flags: W
HStem: 0 21G<129.142 166.491> 186.123 46.5293<78.5312 125.062 171.592 218.123> 232.652 93.0625<218.123 264.654>
VStem: 32 93.0625<186.123 232.652> 32 46.5312<232.652 325.715> 125.062 46.5293<0 186.123> 171.592 46.5312<186.123 232.652> 218.123 46.5312<232.652 325.715>
LayerCount: 2
Fore
SplineSet
38.349609375 325.71484375 m 2xa8
 72.181640625 325.71484375 l 2xa8
 75.69921875 325.71484375 78.53125 322.8828125 78.53125 319.365234375 c 0
 78.53125 290.4609375 78.53125 261.556640625 78.53125 232.65234375 c 1xc8
 118.712890625 232.65234375 l 2
 122.23046875 232.65234375 125.0625 229.8203125 125.0625 226.302734375 c 2
 125.0625 192.47265625 l 2
 125.0625 188.955078125 122.23046875 186.123046875 118.712890625 186.123046875 c 0
 91.9248046875 186.123046875 65.1376953125 186.123046875 38.349609375 186.123046875 c 0
 34.83203125 186.123046875 32 188.955078125 32 192.47265625 c 2xd0
 32 319.365234375 l 2
 32 322.8828125 34.83203125 325.71484375 38.349609375 325.71484375 c 2xa8
224.47265625 325.71484375 m 2
 258.3046875 325.71484375 l 2
 261.822265625 325.71484375 264.654296875 322.8828125 264.654296875 319.365234375 c 2
 264.654296875 239.001953125 l 2
 264.654296875 235.484375 261.822265625 232.65234375 258.3046875 232.65234375 c 2
 224.47265625 232.65234375 l 2
 220.955078125 232.65234375 218.123046875 235.484375 218.123046875 239.001953125 c 2
 218.123046875 319.365234375 l 2xa1
 218.123046875 322.8828125 220.955078125 325.71484375 224.47265625 325.71484375 c 2
177.94140625 232.65234375 m 2xc2
 211.7734375 232.65234375 l 2
 215.291015625 232.65234375 218.123046875 229.8203125 218.123046875 226.302734375 c 2
 218.123046875 192.47265625 l 2
 218.123046875 188.955078125 215.291015625 186.123046875 211.7734375 186.123046875 c 2
 177.94140625 186.123046875 l 2
 174.423828125 186.123046875 171.591796875 188.955078125 171.591796875 192.47265625 c 2
 171.591796875 226.302734375 l 2
 171.591796875 229.8203125 174.423828125 232.65234375 177.94140625 232.65234375 c 2xc2
131.412109375 186.123046875 m 2
 165.2421875 186.123046875 l 2
 168.759765625 186.123046875 171.591796875 183.291015625 171.591796875 179.7734375 c 0
 171.591796875 128.315429688 171.591796875 76.8564453125 171.591796875 25.3984375 c 0
 171.591796875 23.5732421875 171.4140625 21.7958984375 171.08203125 20.08203125 c 2
 171.08203125 6.349609375 l 2
 171.08203125 2.83203125 168.25 0 164.732421875 0 c 2
 130.900390625 0 l 2
 127.3828125 0 124.55078125 2.83203125 124.55078125 6.349609375 c 2
 124.55078125 40.181640625 l 2
 124.55078125 41.072265625 124.734375 41.91796875 125.0625 42.685546875 c 0
 125.0625 88.3818359375 125.0625 134.077148438 125.0625 179.7734375 c 0xc4
 125.0625 183.291015625 127.89453125 186.123046875 131.412109375 186.123046875 c 2
EndSplineSet
Validated: 524289
EndChar
StartChar: z
Encoding: 122 122 6
Width: 310
VWidth: 0
Flags: HMW
LayerCount: 2
Fore
SplineSet
35 309 m 0
 35 321 44 334 57 334 c 0
 106 334 156 334 205 334 c 0
 217 334 225 320 225 309 c 0
 225 298 217 286 205 286 c 0
 156 286 106 286 57 286 c 0
 44 286 35 297 35 309 c 0
273 167 m 2
 273 155 263 143 250 143 c 2
 83 143 l 1
 83 91 l 2
 83 90 82 88 82 87 c 0
 82 86 83 86 83 85 c 2
 83 48 l 1
 249 48 l 2
 262 48 273 37 273 24 c 0
 273 11 262 0 249 0 c 2
 58 0 l 2
 45 0 35 11 35 24 c 0
 35 72 35 119 35 167 c 0
 35 180 45 191 58 191 c 1
 59 190 l 1
 60 191 l 1
 225 191 l 1
 225 262 l 2
 225 275 236 286 249 286 c 0
 262 286 273 275 273 262 c 2
 273 167 l 2
EndSplineSet
EndChar
StartChar: braceleft
Encoding: 123 123 89
Width: 305
VWidth: 0
Flags: HMW
LayerCount: 2
Fore
SplineSet
233 584 m 0
 257 584 274 566 274 542 c 0
 274 518 257 501 233 501 c 0
 209 501 191 518 191 542 c 0
 191 566 209 584 233 584 c 0
108 461 m 0
 108 484 128 501 150 501 c 0
 172 501 191 484 191 461 c 0
 191 432 191 404 191 375 c 0
 191 351 174 333 150 333 c 0
 126 333 108 351 108 375 c 0
 108 404 108 432 108 461 c 0
67 333 m 0
 91 333 108 316 108 292 c 0
 108 268 91 250 67 250 c 0
 43 250 25 268 25 292 c 0
 25 316 43 333 67 333 c 0
150 250 m 0
 174 250 191 233 191 209 c 2
 191 125 l 2
 191 101 174 83 150 83 c 0
 126 83 108 101 108 125 c 0
 108 152 108 177 108 204 c 0
 108 205 109 204 109 205 c 0
 109 206 108 208 108 209 c 0
 108 233 126 250 150 250 c 0
233 83 m 0
 257 83 274 66 274 42 c 0
 274 18 257 0 233 0 c 0
 209 0 191 18 191 42 c 0
 191 66 209 83 233 83 c 0
EndSplineSet
EndChar
StartChar: bar
Encoding: 124 124 91
Width: 156
VWidth: 0
Flags: HMW
LayerCount: 2
Fore
SplineSet
36 611 m 2
 36 634 55 651 77 651 c 0
 99 651 117 634 117 611 c 2
 117 -41 l 2
 117 -64 100 -81 77 -81 c 0
 54 -81 36 -64 36 -41 c 2
 36 611 l 2
EndSplineSet
EndChar
StartChar: braceright
Encoding: 125 125 92
Width: 298
VWidth: 0
Flags: HMW
LayerCount: 2
Fore
SplineSet
69 81 m 0
 92 81 109 64 109 41 c 0
 109 18 92 0 69 0 c 0
 46 0 28 18 28 41 c 0
 28 64 46 81 69 81 c 0
109 208 m 2
 109 229 131 244 150 244 c 0
 169 244 191 229 191 208 c 2
 191 122 l 2
 191 99 173 81 150 81 c 0
 127 81 109 99 109 122 c 2
 109 208 l 2
232 325 m 0
 255 325 272 308 272 285 c 0
 272 262 255 244 232 244 c 0
 209 244 191 262 191 285 c 0
 191 308 209 325 232 325 c 0
109 450 m 2
 109 472 130 489 150 489 c 0
 170 489 191 472 191 450 c 2
 191 366 l 2
 191 343 173 325 150 325 c 0
 127 325 109 343 109 366 c 2
 109 450 l 2
69 570 m 0
 92 570 109 552 109 529 c 0
 109 506 92 489 69 489 c 0
 46 489 28 506 28 529 c 0
 28 552 46 570 69 570 c 0
EndSplineSet
EndChar
StartChar: asciitilde
Encoding: 126 126 93
Width: 469
VWidth: 0
Flags: HMW
LayerCount: 2
Fore
SplineSet
112 285 m 0
 112 306 130 326 152 326 c 0
 179 326 207 326 234 326 c 1
 234 325 l 1
 235 326 l 1
 258 326 275 308 275 285 c 0
 275 262 258 244 235 244 c 2
 234 244 l 2
 207 244 179 244 152 244 c 0
 130 244 112 264 112 285 c 0
397 326 m 0
 420 326 438 308 438 285 c 0
 438 262 420 244 397 244 c 0
 374 244 356 262 356 285 c 0
 356 308 374 326 397 326 c 0
72 244 m 0
 95 244 112 227 112 204 c 0
 112 181 95 163 72 163 c 0
 49 163 31 181 31 204 c 0
 31 227 49 244 72 244 c 0
316 244 m 0
 339 244 356 227 356 204 c 0
 356 181 339 163 316 163 c 0
 293 163 275 181 275 204 c 0
 275 227 293 244 316 244 c 0
EndSplineSet
Validated: 1
EndChar
